<svg width="13" height="8" viewBox="0 0 13 8" fill="none" xmlns="http://www.w3.org/2000/svg">
<g clip-path="url(#clip0_350_654)">
<path d="M6.50054 0C2.91617 0 0 2.9769 0 6.63549C0 7.02873 0.0358546 7.42986 0.106477 7.82873C0.123861 7.92789 0.208608 8 0.30748 8H12.6925C12.7914 8 12.8761 7.92789 12.8935 7.82873C12.9641 7.42986 13 7.02873 13 6.63549C13 2.9769 10.0849 0 6.50054 0ZM2.67605 6.69746H1.57108C1.33097 6.69746 1.13648 6.49577 1.13648 6.24676C1.13648 5.99775 1.33097 5.79606 1.57108 5.79606H2.67714C2.91726 5.79606 3.11174 5.99775 3.11174 6.24676C3.11174 6.49577 2.91726 6.69746 2.67714 6.69746H2.67605ZM3.58003 4.67831C3.50288 4.83268 3.35077 4.92169 3.19323 4.92169C3.12587 4.92169 3.05742 4.90592 2.9944 4.87099L2.03719 4.35718C1.82424 4.24225 1.74058 3.9707 1.85031 3.74986C1.96005 3.52901 2.22298 3.44225 2.43594 3.55606L3.39315 4.06986C3.6061 4.18479 3.68976 4.45634 3.58003 4.67718V4.67831ZM4.80886 3.5662C4.73606 3.61465 4.65458 3.63831 4.57417 3.63831C4.43184 3.63831 4.29168 3.56507 4.20802 3.43211L3.65499 2.5431C3.52461 2.33352 3.58328 2.05521 3.78429 1.92C3.98638 1.78479 4.25474 1.84563 4.38512 2.05408L4.93815 2.9431C5.06853 3.15268 5.00986 3.43099 4.80886 3.5662ZM6.00184 1.69352C6.00184 1.44451 6.19632 1.24282 6.43644 1.24282C6.67656 1.24282 6.87104 1.44451 6.87104 1.69352V2.72113C6.87104 2.97014 6.67656 3.17183 6.43644 3.17183C6.19632 3.17183 6.00184 2.97014 6.00184 2.72113V1.69352ZM7.99014 5.48169L6.77543 6.74141C6.69068 6.8293 6.57986 6.87324 6.46795 6.87324C6.35604 6.87324 6.24522 6.8293 6.16047 6.74141C5.99097 6.56563 5.99097 6.28056 6.16047 6.10366L7.37518 4.84394C7.54467 4.66817 7.81956 4.66817 7.99014 4.84394C8.15963 5.01972 8.15963 5.30479 7.99014 5.48169ZM8.78546 3.61239C8.70288 3.74648 8.56272 3.81859 8.41931 3.81859C8.33891 3.81859 8.25742 3.79493 8.18462 3.74648C7.98253 3.61127 7.92495 3.33296 8.05533 3.12338L8.60836 2.23437C8.73874 2.02479 9.0071 1.96507 9.20919 2.10028C9.41128 2.23549 9.46887 2.5138 9.33849 2.72338L8.78546 3.61239ZM9.43084 4.87887C9.3211 4.65803 9.40368 4.38535 9.61772 4.27155L10.5749 3.75775C10.7879 3.64394 11.0508 3.72958 11.1606 3.95155C11.2703 4.17352 11.1877 4.44507 10.9737 4.55887L10.0165 5.07268C9.95236 5.10648 9.88391 5.12338 9.81763 5.12338C9.66009 5.12338 9.50798 5.03437 9.43084 4.88V4.87887ZM11.43 6.87324H10.3239C10.0838 6.87324 9.88934 6.67155 9.88934 6.42253C9.88934 6.17352 10.0838 5.97183 10.3239 5.97183H11.43C11.6701 5.97183 11.8646 6.17352 11.8646 6.42253C11.8646 6.67155 11.6701 6.87324 11.43 6.87324Z" fill="#4B4C4D"/>
</g>
<defs>
<clipPath id="clip0_350_654">
<rect width="13" height="8" fill="white"/>
</clipPath>
</defs>
</svg>
