<svg width="34" height="34" viewBox="0 0 34 34" fill="none" xmlns="http://www.w3.org/2000/svg">
<circle cx="17" cy="17" r="17" fill="#F9B853"/>
<path fill-rule="evenodd" clip-rule="evenodd" d="M17.3258 9.02664C17.1026 8.9633 16.8672 8.96336 16.644 9.02688C16.1687 9.16213 15.6889 9.2874 15.2075 9.41309C13.0592 9.97402 10.6937 10.5916 8.67022 12.2429L7.71617 13.0214C6.9554 13.6422 6.9558 14.858 7.71723 15.4782L8.65585 16.2427C9.34927 16.8075 10.0719 17.2493 10.8125 17.6096V21.8528C10.8125 22.8916 11.4498 23.8241 12.4177 24.2014L16.0844 25.6309C16.6732 25.8605 17.3268 25.8605 17.9157 25.6309L21.5824 24.2014C22.5503 23.8241 23.1875 22.8916 23.1875 21.8528V17.6172C23.9232 17.2588 24.6411 16.8192 25.3299 16.2572L25.4792 16.1353V20.6667C25.4792 21.0464 25.787 21.3542 26.1667 21.3542C26.5464 21.3542 26.8542 21.0464 26.8542 20.6667V14.25C26.854 13.7909 26.6636 13.3319 26.2828 13.0218L25.3442 12.2573C23.306 10.5973 20.8412 9.95439 18.7593 9.41142C18.2789 9.28614 17.8002 9.16126 17.3258 9.02664ZM13.6076 17.7446C13.2594 17.5931 12.8544 17.7526 12.7029 18.1008C12.5515 18.449 12.711 18.854 13.0592 19.0055C14.2305 19.5149 15.4431 19.9318 16.6857 20.2507C16.9022 20.3063 17.1294 20.3062 17.3459 20.2505C18.5852 19.9315 19.7941 19.5147 20.9618 19.0051C21.3098 18.8533 21.4688 18.4481 21.3169 18.1001C21.165 17.752 20.7598 17.593 20.4118 17.7449C19.3149 18.2235 18.1794 18.6155 17.0154 18.9157C15.8478 18.6154 14.7084 18.2234 13.6076 17.7446Z" fill="white"/>
</svg>
