<svg width="15" height="15" viewBox="0 0 15 15" fill="none" xmlns="http://www.w3.org/2000/svg">
<path fill-rule="evenodd" clip-rule="evenodd" d="M7.5 15C11.6422 15 15 11.6422 15 7.5C15 3.35824 11.6422 0 7.5 0C3.35824 0 0 3.35824 0 7.5C0 11.6422 3.35824 15 7.5 15ZM4.63227 7.5C5.24153 7.5 5.73521 6.17029 5.73521 5.07353C5.73521 3.9772 5.24153 2.64706 4.63227 2.64706C4.023 2.64706 3.52933 3.9772 3.52933 5.07353C3.52933 6.17029 4.023 7.5 4.63227 7.5ZM10.3676 7.5C10.9768 7.5 11.4705 6.17029 11.4705 5.07353C11.4705 3.9772 10.9768 2.64706 10.3676 2.64706C9.7583 2.64706 9.26462 3.9772 9.26462 5.07353C9.26462 6.17029 9.7583 7.5 10.3676 7.5ZM3.52933 8.82353C4.84094 9.07853 5.90153 9.2647 7.49991 9.2647C9.0983 9.2647 10.1589 9.07853 11.4705 8.82353C11.7701 8.76529 12.3529 8.82353 12.3529 9.70588C12.3529 11.4706 10.3252 13.6765 7.49991 13.6765C4.67418 13.6765 2.64697 11.4706 2.64697 9.70588C2.64697 8.82353 3.22977 8.76573 3.52933 8.82353Z" fill="#58C363"/>
</svg>
