<svg width="15" height="15" viewBox="0 0 15 15" fill="none" xmlns="http://www.w3.org/2000/svg">
<path fill-rule="evenodd" clip-rule="evenodd" d="M7.5 15C11.6422 15 15 11.6422 15 7.5C15 3.35824 11.6422 0 7.5 0C3.35824 0 0 3.35824 0 7.5C0 11.6422 3.35824 15 7.5 15ZM6.76883 4.19843C6.81605 4.18662 6.86585 4.19074 6.9105 4.21013C6.95502 4.22958 6.9919 4.26315 7.01542 4.30565C7.03895 4.34816 7.04781 4.39723 7.04065 4.44528C7.03094 4.50925 6.78565 6.02249 5.52653 6.36616C5.37609 6.40675 5.22124 6.42793 5.06638 6.42793C4.03183 6.42793 3.2783 5.5191 3.24697 5.48028C3.21615 5.44246 3.19874 5.39549 3.19746 5.34672C3.19619 5.29795 3.21111 5.25013 3.2399 5.21075C3.2687 5.17136 3.30974 5.14264 3.3566 5.12906C3.40346 5.11549 3.4535 5.11783 3.49888 5.13572L3.49913 5.13581C3.50811 5.13908 3.7568 5.22969 4.188 5.22969C4.52279 5.22696 4.85572 5.17963 5.178 5.08896C6.20995 4.80776 6.63874 4.28825 6.64917 4.27562L6.64933 4.27543C6.67959 4.2373 6.7216 4.21024 6.76883 4.19843ZM11.6342 5.08163C11.6812 5.09431 11.7228 5.12216 11.7524 5.16087C11.782 5.19935 11.798 5.24654 11.7979 5.29506C11.7978 5.34359 11.7817 5.39072 11.752 5.4291C11.7206 5.47013 10.9698 6.42263 9.91227 6.42263C9.77241 6.42263 9.63168 6.40543 9.49491 6.3719C8.2283 6.05999 7.94506 4.55337 7.93359 4.4894C7.92497 4.44133 7.93255 4.39175 7.95514 4.34845C7.97773 4.30515 8.01405 4.27057 8.05841 4.25013C8.10277 4.2297 8.15265 4.22456 8.20024 4.23552C8.24783 4.24649 8.29044 4.27294 8.32138 4.31072C8.32447 4.31513 8.76565 4.82955 9.81124 5.08631C10.1262 5.16396 10.4342 5.20366 10.7258 5.20366C11.2129 5.20366 11.4895 5.09204 11.4921 5.09072C11.5372 5.07214 11.5871 5.06895 11.6342 5.08163ZM3.67812 3.85976C3.75856 3.93095 3.8622 3.97035 3.96962 3.97057C4.00592 3.97072 4.04209 3.96627 4.07727 3.95734C4.15712 3.93749 6.04977 3.44513 7.01197 1.52072C7.0384 1.46884 7.05431 1.41224 7.05876 1.35419C7.06321 1.29613 7.05613 1.23777 7.03792 1.18247C7.01971 1.12716 6.99074 1.07601 6.95266 1.03196C6.91459 0.987903 6.86817 0.951822 6.81609 0.925795C6.764 0.899767 6.70728 0.884308 6.6492 0.880306C6.59111 0.876305 6.5328 0.883841 6.47764 0.902481C6.42248 0.921121 6.37155 0.950497 6.3278 0.988913C6.28405 1.02733 6.24833 1.07403 6.22271 1.12631C5.45208 2.66668 3.89923 3.09158 3.86209 3.10175L3.86153 3.1019C3.75744 3.12844 3.66661 3.19204 3.60608 3.28077C3.54554 3.36951 3.51946 3.47728 3.53272 3.58387C3.54599 3.69047 3.59769 3.78856 3.67812 3.85976ZM10.9226 3.95734C10.9583 3.96616 10.994 3.97057 11.0293 3.97057C11.1363 3.96964 11.2393 3.9299 11.3192 3.85875C11.3991 3.7876 11.4504 3.68987 11.4637 3.58372C11.4769 3.47757 11.4512 3.37021 11.3913 3.2816C11.3314 3.19298 11.2413 3.12912 11.1379 3.1019L11.1373 3.10174C11.0996 3.09144 9.54674 2.66686 8.77712 1.12631C8.72482 1.02159 8.63306 0.941934 8.52202 0.904867C8.41099 0.867801 8.28978 0.87636 8.18506 0.928662C8.08034 0.980965 8.00068 1.07273 7.96362 1.18376C7.92655 1.29479 7.93511 1.416 7.98741 1.52072C8.94962 3.44513 10.8423 3.93749 10.9226 3.95734ZM3.52933 12.7787C4.84094 12.5237 5.90153 12.3375 7.49991 12.3375C9.0983 12.3375 10.1589 12.5237 11.4705 12.7787C11.7701 12.8369 12.3529 12.7787 12.3529 11.8963C12.3529 10.1316 10.3252 7.92572 7.49991 7.92572C4.67418 7.92572 2.64697 10.1316 2.64697 11.8963C2.64697 12.7787 3.22977 12.8365 3.52933 12.7787Z" fill="#ED6451"/>
</svg>
