<svg width="24" height="24" viewBox="0 0 24 24" fill="none" xmlns="http://www.w3.org/2000/svg">
<path d="M6.54567 8.16271C6.33045 8.10593 6.15157 7.95649 6.05741 7.7548C5.96325 7.55312 5.96354 7.32002 6.0582 7.11857L7.71895 3.58418C7.84271 3.3208 8.10766 3.15278 8.39867 3.15314C8.68969 3.1535 8.95422 3.32217 9.07733 3.58586L9.80996 5.1551C9.83615 5.1448 9.8632 5.13588 9.89103 5.12842C14.2384 3.96355 18.7069 6.54346 19.8718 10.8908C21.0366 15.2382 18.4567 19.7067 14.1094 20.8716C9.76204 22.0364 5.2935 19.4565 4.12864 15.1092C3.75821 13.7267 3.76655 12.3298 4.09098 11.0311C4.19137 10.6292 4.59853 10.3849 5.00039 10.4852C5.40225 10.5856 5.64665 10.9928 5.54626 11.3947C5.28197 12.4526 5.27468 13.5907 5.57753 14.7209C6.52798 18.2681 10.174 20.3731 13.7212 19.4227C17.2683 18.4722 19.3733 14.8262 18.4229 11.279C17.488 7.78989 13.9449 5.69607 10.4533 6.53313L11.1925 8.11643C11.3156 8.38012 11.2751 8.69122 11.0885 8.91455C10.9019 9.13789 10.603 9.23313 10.3216 9.15889L6.54567 8.16271Z" fill="#455EEE"/>
</svg>
