<svg width="34" height="34" viewBox="0 0 34 34" fill="none" xmlns="http://www.w3.org/2000/svg">
<circle cx="17" cy="17" r="17" fill="#6A7EF1"/>
<path d="M18.6683 8.75003C18.6683 8.56629 18.5586 8.4003 18.3895 8.32833C18.2205 8.25635 18.0248 8.2923 17.8923 8.41965L16.2625 9.98676C13.8359 12.32 11.7855 15.0152 10.1842 17.9764C10.1465 18.043 10.125 18.1199 10.125 18.2019C10.125 18.455 10.3302 18.6602 10.5833 18.6602H14.5342V25.25C14.5342 25.4315 14.6413 25.5959 14.8073 25.6693C14.9733 25.7426 15.167 25.7111 15.3011 25.5889L16.0304 24.9246C18.583 22.5993 20.7493 19.8826 22.448 16.8763L22.899 16.078C22.9792 15.9361 22.978 15.7623 22.8959 15.6215C22.8137 15.4808 22.663 15.3942 22.5 15.3942H18.6683V8.75003Z" fill="white"/>
</svg>
