<svg width="21" height="16" viewBox="0 0 21 16" fill="none" xmlns="http://www.w3.org/2000/svg">
<path d="M15.0892 16H19.6794C19.8622 16 20.0347 15.9702 20.1949 15.9155C20.353 15.8608 20.4948 15.7845 20.6139 15.6867C20.733 15.5906 20.8316 15.4762 20.8973 15.3486C20.9651 15.2209 21 15.08 21 14.9325C21 14.785 20.963 14.6457 20.8973 14.5164C20.8295 14.3888 20.733 14.2744 20.6139 14.1766C20.4948 14.0805 20.353 14.0026 20.1949 13.9495C20.0368 13.8948 19.8622 13.8667 19.6794 13.8667H1.32059C1.1378 13.8667 0.963226 13.8965 0.807138 13.9495C0.648996 14.0042 0.505233 14.0822 0.386113 14.1766C0.266994 14.2744 0.170465 14.3888 0.102689 14.5164C0.0369682 14.6441 0 14.785 0 14.9325C0 15.08 0.0369682 15.2193 0.102689 15.3486C0.170465 15.4762 0.266994 15.5922 0.386113 15.6867C0.505233 15.7845 0.648996 15.8608 0.807138 15.9155C0.96528 15.9702 1.1378 16 1.32059 16H15.0892Z" fill="#455EEE"/>
<path d="M14.7441 3.73207V5.37761C14.7441 5.65936 14.5319 5.88802 14.2705 5.88802C14.0091 5.88802 13.797 5.65936 13.797 5.37761V3.22167C13.4977 3.08488 13.1908 2.97055 12.8764 2.87459V6.87615C12.8764 7.15789 12.6643 7.38655 12.4029 7.38655C12.1415 7.38655 11.9293 7.15789 11.9293 6.87615V2.65002V1.31276C11.9293 1.13105 11.8952 0.959555 11.8327 0.800309C11.7702 0.643105 11.6831 0.502238 11.5713 0.383824C11.4615 0.265411 11.3308 0.167412 11.1849 0.102081C11.0391 0.0347074 10.8781 0 10.7095 0C10.5409 0 10.3818 0.036749 10.2341 0.102081C10.0882 0.169454 9.95751 0.265411 9.84576 0.383824C9.7359 0.502238 9.64687 0.643105 9.58626 0.800309C9.52375 0.957513 9.49155 1.13105 9.49155 1.31276V2.65002C9.49155 2.65002 9.49157 2.65002 9.48968 2.65002V6.88637C9.48968 7.16811 9.27753 7.39677 9.01614 7.39677C8.75475 7.39677 8.5426 7.16811 8.5426 6.88637V2.87664C8.20166 2.98076 7.87018 3.10938 7.54818 3.26046V5.38986C7.54818 5.67161 7.33602 5.90027 7.07463 5.90027C6.81323 5.90027 6.60109 5.67161 6.60109 5.38986V3.78516C4.04588 5.43274 2.29569 8.56866 2.21045 12.1905C2.22181 12.1905 2.23318 12.1905 2.24454 12.1905H19.1763C19.1877 12.1905 19.1991 12.1905 19.2104 12.1905C19.1252 8.53191 17.3409 5.36944 14.7441 3.73615V3.73207Z" fill="#455EEE"/>
</svg>
