<svg width="15" height="15" viewBox="0 0 15 15" fill="none" xmlns="http://www.w3.org/2000/svg">
<path fill-rule="evenodd" clip-rule="evenodd" d="M7.5 15C11.6422 15 15 11.6422 15 7.5C15 3.35824 11.6422 0 7.5 0C3.35824 0 0 3.35824 0 7.5C0 11.6422 3.35824 15 7.5 15ZM4.8528 4.41177C3.97044 4.41177 3.97044 5.29412 3.97044 5.29412V6.17647C3.97044 6.17647 3.97044 7.05883 4.8528 7.05883C5.73515 7.05883 5.73515 6.17647 5.73515 6.17647V5.29412C5.73515 5.29412 5.73515 4.41177 4.8528 4.41177ZM10.1469 4.41177C9.26456 4.41177 9.26456 5.29412 9.26456 5.29412V6.17647C9.26456 6.17647 9.26456 7.05883 10.1469 7.05883C11.0293 7.05883 11.0293 6.17647 11.0293 6.17647V5.29412C11.0293 5.29412 11.0293 4.41177 10.1469 4.41177ZM11.4805 9.48569C11.5315 9.48802 11.5802 9.508 11.6182 9.54221C11.6562 9.57639 11.6812 9.62274 11.6887 9.67329C11.6963 9.72384 11.686 9.77545 11.6597 9.81927C11.6032 9.91412 10.2404 12.1324 7.49986 12.1324C4.75927 12.1324 3.39691 9.91412 3.34 9.81927C3.3137 9.7754 3.30345 9.72376 3.31102 9.67317C3.31859 9.62258 3.34351 9.5762 3.3815 9.54196C3.4195 9.50772 3.46821 9.48774 3.51931 9.48545C3.57041 9.48317 3.62072 9.4987 3.66162 9.52941C3.67838 9.54221 5.39721 10.8088 7.49986 10.8088C9.6078 10.8088 11.3209 9.54221 11.3381 9.52941C11.3791 9.49881 11.4294 9.48336 11.4805 9.48569Z" fill="#455EEE"/>
</svg>
