<svg width="4" height="11" viewBox="0 0 4 11" fill="none" xmlns="http://www.w3.org/2000/svg">
<path fill-rule="evenodd" clip-rule="evenodd" d="M1.50601 1.57049V9.42977L0.860978 8.83373C0.815046 8.78987 0.760033 8.75481 0.69915 8.73061C0.638266 8.70642 0.57273 8.69356 0.506362 8.69279C0.439993 8.69202 0.374122 8.70335 0.312588 8.72613C0.251054 8.74891 0.19509 8.78268 0.147958 8.82546C0.100826 8.86825 0.0634699 8.9192 0.038068 8.97534C0.0126661 9.03148 -0.000273283 9.09168 4.3756e-06 9.15245C0.000282035 9.21322 0.013771 9.27332 0.039685 9.32927C0.0655991 9.38521 0.10342 9.43587 0.150941 9.4783L1.65102 10.864C1.69728 10.907 1.75237 10.9411 1.81313 10.9644C1.87388 10.9878 1.93909 10.9999 2.00498 11C2.07086 11.0001 2.13612 10.9883 2.19698 10.9652C2.25785 10.9421 2.3131 10.9082 2.35956 10.8654L3.85964 9.49203C3.95072 9.40569 4.00112 9.29005 3.99998 9.17002C3.99884 9.04999 3.94625 8.93517 3.85355 8.8503C3.76084 8.76542 3.63542 8.71727 3.50432 8.71623C3.37321 8.71519 3.2469 8.76133 3.1526 8.84472L2.50606 9.43664V1.56317L3.1526 2.15509C3.2469 2.23848 3.37321 2.28462 3.50432 2.28358C3.63542 2.28253 3.76084 2.23439 3.85355 2.14951C3.94625 2.06463 3.99884 1.94982 3.99998 1.82979C4.00112 1.70976 3.95072 1.59412 3.85964 1.50778L2.35956 0.13442C2.31307 0.0916986 2.2578 0.0578262 2.19694 0.0347558C2.13609 0.0116854 2.07084 -0.000126648 2.00498 1.02401e-06C1.93911 0.000128696 1.87392 0.0121936 1.81317 0.0354997C1.75242 0.0588058 1.69731 0.0928921 1.65102 0.135793L0.150941 1.52151C0.0648511 1.60899 0.0188435 1.72344 0.0224608 1.84114C0.026078 1.95884 0.0790422 2.07075 0.170368 2.15365C0.261694 2.23656 0.384373 2.2841 0.512958 2.28641C0.641543 2.28872 0.766166 2.24563 0.860978 2.16607L1.50601 1.57049Z" fill="#4B4C4D"/>
</svg>
