<svg width="13" height="11" viewBox="0 0 13 11" fill="none" xmlns="http://www.w3.org/2000/svg">
<path d="M9.28571 6.41667H11.4983C11.4741 6.44531 11.45 6.47038 11.4258 6.49186C11.4016 6.51335 11.3798 6.53125 11.3605 6.54557L11.3387 6.57422L6.8192 10.8711C6.73214 10.957 6.62574 11 6.5 11C6.37426 11 6.26786 10.957 6.1808 10.8711L1.65402 6.5599C1.62984 6.55035 1.57906 6.5026 1.50167 6.41667H4.17857C4.28497 6.41667 4.38049 6.38444 4.46512 6.31999C4.54976 6.25553 4.60417 6.17318 4.62835 6.07292L5.13616 4.06055L6.51451 8.83724C6.54353 8.93273 6.59914 9.0115 6.68136 9.07357C6.76358 9.13563 6.85789 9.16667 6.96429 9.16667C7.06585 9.16667 7.15774 9.13563 7.23995 9.07357C7.32217 9.0115 7.37779 8.93273 7.40681 8.83724L8.46596 5.36393L8.87221 6.16602C8.95926 6.33312 9.0971 6.41667 9.28571 6.41667ZM13 3.35156C13 4.04384 12.7509 4.75998 12.2528 5.5H9.57589L8.77065 3.91732C8.73196 3.83615 8.67029 3.7717 8.58566 3.72396C8.50102 3.67622 8.41276 3.65712 8.32087 3.66667C8.10324 3.69054 7.96782 3.80035 7.91462 3.99609L6.97879 7.07552L5.55692 2.16276C5.5279 2.06727 5.47108 1.9885 5.38644 1.92643C5.3018 1.86437 5.20629 1.83333 5.09989 1.83333C4.99349 1.83333 4.89918 1.86556 4.81696 1.93001C4.73475 1.99447 4.68155 2.07682 4.65737 2.17708L3.81585 5.5H0.74721C0.24907 4.75998 0 4.04384 0 3.35156C0 2.30122 0.307106 1.48003 0.921317 0.888021C1.53553 0.296007 2.3843 0 3.46763 0C3.76748 0 4.07338 0.0513238 4.38532 0.153971C4.69727 0.256619 4.98744 0.395074 5.25586 0.569336C5.52427 0.743598 5.75521 0.907118 5.94866 1.0599C6.14211 1.21267 6.32589 1.375 6.5 1.54688C6.67411 1.375 6.85789 1.21267 7.05134 1.0599C7.24479 0.907118 7.47573 0.743598 7.74414 0.569336C8.01256 0.395074 8.30273 0.256619 8.61468 0.153971C8.92662 0.0513238 9.23251 0 9.53237 0C10.6157 0 11.4645 0.296007 12.0787 0.888021C12.6929 1.48003 13 2.30122 13 3.35156Z" fill="#FF6E6E"/>
</svg>
