<svg width="34" height="34" viewBox="0 0 34 34" fill="none" xmlns="http://www.w3.org/2000/svg">
<circle cx="17" cy="17" r="17" fill="#ED6451"/>
<path d="M24.1831 21.4976C24.5893 17.5931 24.5893 13.6569 24.1831 9.75241C24.056 8.53112 22.6479 7.91248 21.6624 8.645L17.9008 11.4412C16.715 12.3226 15.2768 12.7986 13.7993 12.7986H10.2892C9.78296 12.7986 9.37256 13.209 9.37256 13.7153V17.5347C9.37256 18.041 9.78296 18.4514 10.2892 18.4514L13.7993 18.4514C15.2768 18.4514 16.715 18.9274 17.9008 19.8088L21.6624 22.605C22.6479 23.3376 24.056 22.7189 24.1831 21.4976Z" fill="white"/>
<path d="M14.3349 20.4852C14.3875 20.2794 14.3421 20.0609 14.2119 19.8931C14.0817 19.7254 13.8812 19.6272 13.6688 19.6272L11.8355 19.6272C11.5751 19.6272 11.337 19.7743 11.2206 20.0072L10.3039 21.8406C10.1474 22.1537 10.2511 22.5344 10.5447 22.7249L12.5009 23.9935C12.6866 24.114 12.919 24.1376 13.1251 24.0571C13.3313 23.9765 13.4861 23.8016 13.541 23.5871L14.3349 20.4852Z" fill="white"/>
</svg>
