<svg width="7" height="14" viewBox="0 0 7 14" fill="none" xmlns="http://www.w3.org/2000/svg">
<path d="M3.5 14C2.76541 14 2.04944 13.7689 1.45351 13.3393C0.857585 12.9098 0.411906 12.3037 0.179609 11.6068C-0.0526888 10.9099 -0.059828 10.1576 0.159203 9.45641C0.378233 8.75524 0.812329 8.14075 1.4 7.7V2.1C1.4 1.54305 1.62125 1.0089 2.01508 0.615076C2.4089 0.221249 2.94305 0 3.5 0C4.05695 0 4.5911 0.221249 4.98492 0.615076C5.37875 1.0089 5.6 1.54305 5.6 2.1V7.7C6.18767 8.14075 6.62177 8.75524 6.8408 9.45641C7.05983 10.1576 7.05269 10.9099 6.82039 11.6068C6.58809 12.3037 6.14242 12.9098 5.54649 13.3393C4.95056 13.7689 4.23459 14 3.5 14ZM4.2 5.278V2.1C4.20147 2.00982 4.18418 1.92032 4.14923 1.83718C4.11429 1.75403 4.06245 1.67905 3.997 1.617C3.93276 1.54959 3.85571 1.49568 3.77037 1.45841C3.68503 1.42115 3.59311 1.40129 3.5 1.4C3.31435 1.4 3.1363 1.47375 3.00503 1.60503C2.87375 1.7363 2.8 1.91435 2.8 2.1V5.278H4.2Z" fill="#6CBB2E"/>
</svg>
