<svg width="9" height="12" viewBox="0 0 9 12" fill="none" xmlns="http://www.w3.org/2000/svg">
<path d="M4.50022 2.57143C5.17803 2.57143 5.72749 1.99579 5.72749 1.28571C5.72749 0.575634 5.17803 0 4.50022 0C3.82242 0 3.27295 0.575634 3.27295 1.28571C3.27295 1.99579 3.82242 2.57143 4.50022 2.57143Z" fill="#4B4C4D"/>
<path d="M8.4375 3.42856H0.5625C0.251836 3.42856 0 3.70253 0 4.04051C0 4.37848 0.251836 4.65246 0.5625 4.65246H2.86995C3.0007 4.67796 3.17925 4.75029 3.27345 5.01585C3.38245 5.32326 3.32899 5.87274 3.26081 6.33478L3.17234 6.88031L3.17098 6.88824L3.17088 6.88875L2.45897 11.2812C2.40499 11.614 2.6093 11.9314 2.91523 11.9901C3.2212 12.0488 3.50897 11.8265 3.5629 11.4937L4.05469 8.43502V8.43928C4.05469 8.43928 4.20117 7.61021 4.48716 7.61021H4.51284C4.80469 7.61021 4.94531 8.43928 4.94531 8.43928V8.43716L5.4371 11.4947C5.49103 11.8276 5.78077 12.0492 6.08674 11.9906C6.39267 11.9319 6.59599 11.6142 6.54202 11.2814L5.82961 6.8887C5.82956 6.8885 5.8293 6.88819 5.82926 6.88801C5.82881 6.88536 5.82823 6.88248 5.82778 6.8798L5.73926 6.33379C5.67108 5.87174 5.61759 5.32328 5.72658 5.01585C5.8208 4.75032 5.9993 4.67796 6.13005 4.65246H8.4375C8.74816 4.65246 9 4.37848 9 4.04051C9 3.70253 8.74816 3.42856 8.4375 3.42856Z" fill="#4B4C4D"/>
</svg>
