<svg width="9" height="12" viewBox="0 0 9 12" fill="none" xmlns="http://www.w3.org/2000/svg">
<path fill-rule="evenodd" clip-rule="evenodd" d="M4.5 12C2.0187 12 0 10.0759 0 7.71084C0 5.50021 3.7161 0.701921 4.13955 0.162774C4.30965 -0.0542579 4.69035 -0.0542579 4.86045 0.162774C5.2839 0.701921 9 5.50021 9 7.71084C9 10.0759 6.9813 12 4.5 12ZM7.5519 8.35679C7.64415 8.13675 7.53165 7.88712 7.3008 7.7992C7.0686 7.71084 6.80805 7.81893 6.71625 8.03853C6.35175 8.90751 5.4819 9.4694 4.5 9.4694C4.2516 9.4694 4.05 9.66112 4.05 9.89831C4.05 10.1351 4.2516 10.3272 4.5 10.3272C5.8527 10.3272 7.0506 9.55346 7.5519 8.35679Z" fill="#455EEE"/>
</svg>
