<svg width="12" height="12" viewBox="0 0 12 12" fill="none" xmlns="http://www.w3.org/2000/svg">
<path d="M2.4 10.2C3.72548 10.2 4.8 9.12551 4.8 7.80002C4.8 6.47454 3.72548 5.40002 2.4 5.40002C1.07452 5.40002 0 6.47454 0 7.80002C0 9.12551 1.07452 10.2 2.4 10.2Z" fill="#F69056"/>
<path d="M8.1001 12C8.92852 12 9.6001 11.3284 9.6001 10.5C9.6001 9.67157 8.92852 9 8.1001 9C7.27167 9 6.6001 9.67157 6.6001 10.5C6.6001 11.3284 7.27167 12 8.1001 12Z" fill="#F69056"/>
<path d="M8.39993 7.2C10.3882 7.2 11.9999 5.58823 11.9999 3.6C11.9999 1.61177 10.3882 0 8.39993 0C6.4117 0 4.79993 1.61177 4.79993 3.6C4.79993 5.58823 6.4117 7.2 8.39993 7.2Z" fill="#F69056"/>
</svg>
