<svg xmlns="http://www.w3.org/2000/svg" width="45.061" height="33.507" viewBox="0 0 45.061 33.507">
  <g id="Heartbeat" transform="translate(-2.25 -5.25)">
    <path id="패스_22749" data-name="패스 22749" d="M14.151,5.25c-6.426,0-11.9,4.8-11.9,11.045,0,4.3,2.016,7.929,4.687,10.932a49.239,49.239,0,0,0,9.2,7.605L21.5,38.459a1.733,1.733,0,0,0,1.943,0L28.8,34.832c.993-.672,2.02-1.386,3.044-2.144a.688.688,0,0,0,.205-.859L28.9,25.471a.462.462,0,0,0-.771-.089l-.168.2A4.622,4.622,0,0,1,24.4,27.267H20.159a4.622,4.622,0,0,1,0-9.243h1.622a.924.924,0,0,0,.713-.336l3.632-4.4A4.621,4.621,0,0,1,33.892,14.3l1.855,4.047a.813.813,0,0,0,1.151.3,4.609,4.609,0,0,1,2.324-.627h2.746a.669.669,0,0,0,.674-.607q.045-.553.046-1.121c0-6.24-5.475-11.045-11.9-11.045A12.155,12.155,0,0,0,22.47,8.813,12.155,12.155,0,0,0,14.151,5.25Z" transform="translate(0 0)" fill="#95a4b4"/>
    <path id="패스_22750" data-name="패스 22750" d="M22.091,10.261a1.733,1.733,0,0,0-2.912-.381L14.4,15.669h-3.42a1.733,1.733,0,1,0,0,3.466H15.22a1.733,1.733,0,0,0,1.337-.63l3.536-4.286,4.143,9.04a1.733,1.733,0,0,0,2.912.381l3.716-4.5H36.4a1.733,1.733,0,1,0,0-3.466H30.047a1.733,1.733,0,0,0-1.337.63l-2.476,3Z" transform="translate(9.176 5.243)" fill="#95a4b4"/>
  </g>
</svg>
