<svg xmlns="http://www.w3.org/2000/svg" width="36" height="45.999" viewBox="0 0 36 45.999"><defs><style>.a,.b{fill:#455eee;}.a{fill-rule:evenodd;}</style></defs><g transform="translate(-4.25 -2.25)"><path class="a" d="M27.476,2.84a.585.585,0,0,0-.581-.59H10.637A6.438,6.438,0,0,0,4.25,8.737V41.762a6.438,6.438,0,0,0,6.387,6.487H33.863a6.438,6.438,0,0,0,6.387-6.487V18.52a.585.585,0,0,0-.581-.59H29.218a1.756,1.756,0,0,1-1.742-1.769Zm1.742,23a1.769,1.769,0,0,1,0,3.538H15.282a1.769,1.769,0,0,1,0-3.538Zm0,9.436a1.769,1.769,0,0,1,0,3.538H15.282a1.769,1.769,0,0,1,0-3.538Z" transform="translate(0 0)"/><path class="b" d="M15.75,3.139a.5.5,0,0,1,.793-.438,4.124,4.124,0,0,1,.76.8l7.108,9.9a.331.331,0,0,1-.291.518H16.34a.59.59,0,0,1-.59-.59Z" transform="translate(15.064 0.465)"/></g></svg>