<svg id="그룹_21024" data-name="그룹 21024" xmlns="http://www.w3.org/2000/svg" xmlns:xlink="http://www.w3.org/1999/xlink" width="129.598" height="131.873" viewBox="0 0 129.598 131.873">
  <defs>
    <style>
      .cls-1 {
        fill: none;
      }

      .cls-2 {
        clip-path: url(#clip-path);
      }

      .cls-3 {
        clip-path: url(#clip-path-2);
      }

      .cls-4 {
        fill: #ff0b00;
      }

      .cls-5 {
        clip-path: url(#clip-path-4);
      }

      .cls-6 {
        fill: #fff;
      }
    </style>
    <clipPath id="clip-path">
      <rect id="사각형_6462" data-name="사각형 6462" class="cls-1" width="129.598" height="131.873"/>
    </clipPath>
    <clipPath id="clip-path-2">
      <rect id="사각형_6463" data-name="사각형 6463" class="cls-1" width="108.924" height="110.542" transform="translate(18.673 2)"/>
    </clipPath>
    <clipPath id="clip-path-4">
      <rect id="사각형_6465" data-name="사각형 6465" class="cls-1" width="129.549" height="131.846" transform="translate(0.049 0.001)"/>
    </clipPath>
  </defs>
  <g id="그룹_21019" data-name="그룹 21019">
    <g id="그룹_21018" data-name="그룹 21018" class="cls-3">
      <path id="패스_22874" data-name="패스 22874" class="cls-4" d="M43.074,28.9,37.2,34.592,18.695,59.461s-.271,3.557,1.1,5.472,5.743,0,5.743,0l19.154-19.7,6.019,17.239L63.3,76.425l19.974,7.661,7.117,2.736,7.383,12.039,6.567,13.681h4.653l4.926-4.378-4.927-13.407L99.143,79.981,80.262,68.49l24.078-1.642L123.222,78.34l4.376-3.01v-5.2L102.7,53.165,77.525,55.081l-5.472-1.916L69.59,35.381,87.647,9.661V5.01L81.9,2,77.525,6.925,65.942,21.609l-5.81,1.936-3.627-1.134-2.437,2.551Z"/>
    </g>
  </g>
  <g id="그룹_21021" data-name="그룹 21021">
    <g id="그룹_21020" data-name="그룹 21020" class="cls-2">
      <path id="패스_22875" data-name="패스 22875" class="cls-4" d="M45.822,7.924a10,10,0,1,1-10,10,10,10,0,0,1,10-10"/>
    </g>
  </g>
  <g id="그룹_21023" data-name="그룹 21023">
    <g id="그룹_21022" data-name="그룹 21022" class="cls-5">
      <path id="패스_22876" data-name="패스 22876" class="cls-6" d="M48.6,69.835H37.556V60.284l-4,4.256v46.524a37.394,37.394,0,0,0,4,2.482V73.835H51.79a42.946,42.946,0,0,1-3.193-4"/>
      <path id="패스_22877" data-name="패스 22877" class="cls-6" d="M82.63,89.836H69.555v-4.51l-.735-.255q-1.658-.594-3.265-1.313V119.6c1.371-.076,2.675-.328,4-.489V93.83H87.112l-1.864-3.094Z"/>
      <path id="패스_22878" data-name="패스 22878" class="cls-6" d="M47.356,78.411h0a2,2,0,0,0-2.828,0l-4.39,4.4a2,2,0,0,0,0,2.828,2.027,2.027,0,0,0,2.829,0l4.39-4.4a2,2,0,0,0,0-2.828"/>
      <path id="패스_22879" data-name="패스 22879" class="cls-6" d="M53.632,81.8a2,2,0,0,0-2.668.88L43.792,96.93a2,2,0,0,0,.888,2.685,2.034,2.034,0,0,0,2.685-.887l7.17-14.246a2,2,0,0,0-.9-2.68"/>
      <path id="패스_22880" data-name="패스 22880" class="cls-6" d="M59.894,85.339a2,2,0,0,0-2.309,1.635.45.45,0,0,1-.008.051l-.987,6.281a1.99,1.99,0,0,0,3.147,1.92,2.021,2.021,0,0,0,.8-1.3l.989-6.28a2,2,0,0,0-1.636-2.308"/>
      <path id="패스_22881" data-name="패스 22881" class="cls-6" d="M126.948,66.341l-4.28-2.848A61.637,61.637,0,0,0,86,13.914l2.544-3.851a6.147,6.147,0,0,0-1.848-8.225c-3.114-2.047-7.292-3.107-9.676.773L72.132,9.77a60.038,60.038,0,0,0-17.075-.588,13.025,13.025,0,0,0-22.118,5.8c-.086.348-.148.7-.2,1.05A61.484,61.484,0,1,0,105.321,113.5a5.983,5.983,0,0,0,5.9-1.293l2.432-2.29a6.008,6.008,0,0,0,1.054-7.481l-.366-.617a61.044,61.044,0,0,0,7.944-21.954,5.837,5.837,0,0,0,3.028-.421,5.983,5.983,0,0,0,3.494-4.113l.53-2.147a6.171,6.171,0,0,0-2.393-6.842m-13.5-8.98-8.551-5.69a5.957,5.957,0,0,0-3.616-.98L77.9,52.052a3.924,3.924,0,0,1-4.078-3.273l-2.268-13L81.5,20.722a53.7,53.7,0,0,1,31.952,36.639m-54.9-40.435c.994-.059,1.994-.1,3-.1a52.709,52.709,0,0,1,5.547.305l-2.3,3.377-5,.345c-.5.039-1.033.034-1.506.121a12.951,12.951,0,0,0,.253-4.052M37.8,13.608a8.969,8.969,0,0,1,3.113-3.147,9.662,9.662,0,0,1,6.81-1.029,8.988,8.988,0,0,1,2.63,1.124c.073.046.143.1.215.146.235.158.464.326.681.505.058.047.116.093.172.141a9.062,9.062,0,0,1,1.462,1.6l.039.057a8.988,8.988,0,0,1,.548.894l.045.082a8.851,8.851,0,0,1,.981,3.327h.013a8.987,8.987,0,0,1-16.839,5.17l.025-.013a8.945,8.945,0,0,1,.119-8.864l-.014.006m23.757,110.24A53.487,53.487,0,0,1,34.175,24.4c.145.262.285.527.447.78a13.084,13.084,0,0,0,5.936,4.959l-3.92,3.695L17.056,55.914c-3.133,3.532-.779,7.288,2.182,9.844a5.866,5.866,0,0,0,8.172-.519L43.285,48.348c3.553,11.735,8.98,26.578,26.839,32.938l17.5,6.037a1.947,1.947,0,0,1,.638.648L99.993,107.5a53.333,53.333,0,0,1-38.436,16.347m48.054-30.01-8.236-13.9a5.914,5.914,0,0,0-1.527-1.709c-.053-.039-.108-.077-.164-.111l-13.2-8.09,14.792-1.516a1.874,1.874,0,0,1,1.161.253q6.137,3.633,12.3,7.23a53.091,53.091,0,0,1-5.123,17.843m12.436-18.189q-8.8-5.144-17.576-10.334a5.869,5.869,0,0,0-3.6-.79l-20.678,2.12a2,2,0,0,0-.84,3.7l18.151,11.12a1.944,1.944,0,0,1,.435.512l13.333,22.5a2.06,2.06,0,0,1-.353,2.527,17.731,17.731,0,0,1-2.52,2.364,1.98,1.98,0,0,1-2.783-.309h0a1.82,1.82,0,0,1-.117-.16L91.685,85.908a5.941,5.941,0,0,0-2.3-2.182A2.167,2.167,0,0,0,89.1,83.6L71.449,77.51c-17.14-6.1-21.516-20.821-25.03-32.647l-.3-.99a2,2,0,0,0-3.374-.8L24.455,62.543c-1.892,2.014-6.284-1.859-4.409-3.975l19.9-22.434c.207-.233,1.613-1.393,1.693-1.694l2.648-3.351a13.035,13.035,0,0,0,12.336-6.022c.426.04.93-.05,1.306.009l6.667-.21a3.064,3.064,0,0,0,2.533-.668L80.348,4.818c.022-.032.043-.065.063-.1,1.072-1.787,2.9-.318,4.082.456a2.123,2.123,0,0,1,.661,2.752l-17.377,26.3a2,2,0,0,0-.3,1.447l2.405,13.784a7.913,7.913,0,0,0,8.243,6.58l23.381-1.36a1.911,1.911,0,0,1,1.167.316l22.047,14.671c2.165,1.442.088,7.594-2.68,5.984"/>
    </g>
  </g>
</svg>
