<svg xmlns="http://www.w3.org/2000/svg" width="82.801" height="69.001" viewBox="0 0 82.801 69.001">
  <path id="패스_22756" data-name="패스 22756" d="M85.578,62.444a13.328,13.328,0,0,0,7.382-2.223,13.381,13.381,0,0,0,7.475,2.173l8.449-3a13.077,13.077,0,0,0,4.63-7.516A12.841,12.841,0,0,0,112.26,43.2a13.335,13.335,0,0,0-6.578-5.976,12.774,12.774,0,0,0-4.613-7.236l-8.247-2.815h-.928a13.238,13.238,0,0,0-7.739-5.232l-17.682-.969A13.3,13.3,0,0,0,58.6,24.365,14.277,14.277,0,0,0,55.493,24a13.382,13.382,0,0,0-7.143,2.076,12.907,12.907,0,0,0-4.836,5.531L36.8,36.25a12.6,12.6,0,0,0-2.567,7.628,11.458,11.458,0,0,0,.464,3.4A12.43,12.43,0,0,0,32,55.06a12.6,12.6,0,0,0,3.575,8.783A12.66,12.66,0,0,0,38,70.333a13.129,13.129,0,0,0,5.517,4.331,19.864,19.864,0,0,1,6.308,6.125A19.292,19.292,0,0,1,52.8,88.971h6.176v-19l-6-5.763-4.061,4.387a2.155,2.155,0,0,1-3.213,0,2.6,2.6,0,0,1,0-3.471l4.734-5.114-1.443-8.571-6.418-3.467a2.549,2.549,0,0,1-1.016-3.293,2.2,2.2,0,0,1,3.048-1.1l6.286,3.395,7.864-5.406-2.423-6.98a2.516,2.516,0,0,1,1.329-3.16,2.226,2.226,0,0,1,2.925,1.436l2.584,7.445h3.178l1.475-3.186-2.159-5.442a2.532,2.532,0,0,1,1.193-3.222,2.212,2.212,0,0,1,2.983,1.289l1.876,4.729,7.5,1.472q.063-.064.132-.123l4.647-4.016a2.159,2.159,0,0,1,3.193.383,2.59,2.59,0,0,1-.355,3.449l-3.343,2.889,3.928,5.456,1.54-3.327A2.261,2.261,0,0,1,90.987,39.3h5.576a2.461,2.461,0,0,1,0,4.908H92.391l-.953,2.058L96.127,47.4a2.17,2.17,0,0,1,.523.2l3.717,2.008a2.549,2.549,0,0,1,1.016,3.292,2.2,2.2,0,0,1-3.048,1.1l-3.467-1.873-8.091-1.942a2.26,2.26,0,0,1-1.3-.889l-5.973-8.3L72.09,39.539a2.271,2.271,0,0,1-.474.366l-1.592,3.439v1.985h3.3a2.135,2.135,0,0,1,1.016.259L81.78,49.6A2.549,2.549,0,0,1,82.8,52.9a2.2,2.2,0,0,1-3.048,1.1l-6.955-3.757H70.025v4.575a2.279,2.279,0,1,1-4.544,0V45.218H61.909l-8.376,5.758,1.445,8.587,7.779,7.469a2.546,2.546,0,0,1,.762,1.834v20.1h6.627V75.388a12.666,12.666,0,0,1,1.992-6.824,13.12,13.12,0,0,1,5.39-4.766,3.03,3.03,0,0,0,1.93-1.859A6.045,6.045,0,0,1,80.6,60.222c.531.353.942.667,1.3.938A4.81,4.81,0,0,0,85.578,62.444Z" transform="translate(-31.5 -20.47)" fill="#e2e6ff" stroke="#455eee" stroke-width="1" fill-rule="evenodd"/>
</svg>
