<svg xmlns="http://www.w3.org/2000/svg" width="44.307" height="69.25" viewBox="0 0 44.307 69.25">
  <g id="그룹_20821" data-name="그룹 20821" transform="translate(-760 -434.582)">
    <path id="패스_22753" data-name="패스 22753" d="M79.307,63.646C79.307,76.544,69.612,87,57.653,87S36,76.544,36,63.646C36,43.212,57.653,19,57.653,19S79.307,43.212,79.307,63.646Z" transform="translate(724.5 416.332)" fill="#e2e6ff" stroke="#455eee" stroke-width="1"/>
    <text id="O" transform="translate(766.025 482.6)" fill="#fff" font-size="28" font-family="SUIT-Regular, SUIT" letter-spacing="-0.04em"><tspan x="0" y="0">O</tspan></text>
    <path id="O_-_윤곽선" data-name="O - 윤곽선" d="M12.1.724A10.182,10.182,0,0,1,4.577-2.468a11.083,11.083,0,0,1-2.921-7.64,11.082,11.082,0,0,1,2.921-7.629,10.175,10.175,0,0,1,7.519-3.2,10.175,10.175,0,0,1,7.519,3.2,11.082,11.082,0,0,1,2.921,7.629,11.083,11.083,0,0,1-2.921,7.64A10.182,10.182,0,0,1,12.1.724Zm0-20.664c-5.382,0-9.44,4.227-9.44,9.832S6.714-.276,12.1-.276s9.44-4.227,9.44-9.832S17.478-19.94,12.1-19.94Zm0,18.62A8.168,8.168,0,0,1,6.039-3.891,9.047,9.047,0,0,1,3.7-10.108,9,9,0,0,1,6.04-16.3,8.178,8.178,0,0,1,12.1-18.868a8.4,8.4,0,0,1,8.4,8.76C20.492-5.1,16.883-1.32,12.1-1.32Zm0-16.548a7.418,7.418,0,0,0-7.4,7.76c0,4.44,3.18,7.788,7.4,7.788s7.4-3.348,7.4-7.788A7.418,7.418,0,0,0,12.1-17.868Z" transform="translate(766.025 482.6)" fill="#455eee"/>
    <text id="_2" data-name="2" transform="translate(788.975 485.9)" fill="#fff" font-size="16" font-family="SUIT-SemiBold, SUIT" font-weight="600" letter-spacing="-0.04em"><tspan x="0" y="0">2</tspan></text>
    <path id="_2_-_윤곽선" data-name="2 - 윤곽선" d="M8.756.308H.46V-1.665L.247-1.878.46-2.084v-.272H.743c.629-.6,1.307-1.159,1.964-1.706,1.651-1.373,3.21-2.669,3.21-3.858a1.39,1.39,0,0,0-1.5-1.452,1.734,1.734,0,0,0-1.7,1.19l-.2.456L.057-8.8l.206-.46a4.587,4.587,0,0,1,2.005-2.225,4.572,4.572,0,0,1,2.147-.551A4.278,4.278,0,0,1,7.25-10.92a4.007,4.007,0,0,1,1.33,3c0,2.207-1.858,3.989-3.726,5.564h3.9Zm-7.3-1h6.3v-.664H1.46Zm.218-1.169.463.463L3.152-2.24l.377-.313C5.428-4.127,7.58-5.911,7.58-7.92a3.186,3.186,0,0,0-3.164-3.116A3.491,3.491,0,0,0,1.409-9.3l.619.271a2.623,2.623,0,0,1,2.389-1.342,2.369,2.369,0,0,1,2.5,2.452c0,1.658-1.734,3.1-3.57,4.627C2.788-2.829,2.215-2.352,1.678-1.861Z" transform="translate(788.975 485.9)" fill="#455eee"/>
  </g>
</svg>
