<svg xmlns="http://www.w3.org/2000/svg" width="41.872" height="46.027" viewBox="0 0 41.872 46.027">
  <defs>
    <style>
      .cls-1 {
        fill: #6adb84;
        fill-rule: evenodd;
      }
    </style>
  </defs>
  <g id="그룹_20874" data-name="그룹 20874" transform="translate(-2415.565 -1424.486)">
    <path id="패스_22774" data-name="패스 22774" class="cls-1" d="M21.722,5.723a4.512,4.512,0,0,0-4.5-3.223,5.126,5.126,0,0,0-2.774.7,3.824,3.824,0,0,0-1.5,1.8A8.062,8.062,0,0,0,12.5,8.159c0,.089,0,.17,0,.242V47.346a1.2,1.2,0,0,0,.014.183,1.181,1.181,0,0,0,1.046.993,1.2,1.2,0,0,0,.121.006,5.718,5.718,0,0,0,5.236-2.8l.029-.052a5.564,5.564,0,0,0,2.431,0,6.459,6.459,0,0,0,2.665-1.3,7.134,7.134,0,0,0,1.891-2.359,6.9,6.9,0,0,0,.721-2.676,6.1,6.1,0,0,0,3.578-10.091,5.973,5.973,0,0,0,1.328-1.737,6.4,6.4,0,0,0,.691-2.689,6.2,6.2,0,0,0-.516-2.711,5.493,5.493,0,0,0-1.655-2.135,5.029,5.029,0,0,0-1.013-.607,9.138,9.138,0,0,0,.99-2.844,9.932,9.932,0,0,0-.182-4.2,9.534,9.534,0,0,0-1.9-3.709,8.15,8.15,0,0,0-3.24-2.368,7.123,7.123,0,0,0-3.009-.493Zm1.667,20.7a5.03,5.03,0,0,0,2.663-.666,1.18,1.18,0,1,0-1.181-2.044,2.669,2.669,0,0,1-1.418.35,3.332,3.332,0,0,1-1.571-.464,4.165,4.165,0,0,1-1.335-1.251,4.4,4.4,0,0,1-.708-1.74,1.18,1.18,0,0,0-2.327.4A6.76,6.76,0,0,0,18.6,23.679a6.521,6.521,0,0,0,2.1,1.959A5.686,5.686,0,0,0,23.389,26.419Zm-4.28,2.652a1.18,1.18,0,0,0-2.2-.869,3.371,3.371,0,0,0-.2,1.768,3.268,3.268,0,0,0,.746,1.616A3.537,3.537,0,0,0,18.923,32.6a1.18,1.18,0,1,0,.821-2.213,1.181,1.181,0,0,1-.491-.333.908.908,0,0,1-.21-.451A1.011,1.011,0,0,1,19.109,29.072Zm4.958-15.21a2.832,2.832,0,0,0-1.191-.985,1.18,1.18,0,0,0-.947,2.162.472.472,0,0,1,.2.169.757.757,0,0,1,.123.351,1.114,1.114,0,0,1-.06.485,1.216,1.216,0,0,1-.27.442.962.962,0,0,1-.368.243,1.18,1.18,0,0,0,.78,2.228,3.318,3.318,0,0,0,1.286-.831,3.575,3.575,0,0,0,.8-1.3A3.475,3.475,0,0,0,24.6,15.3,3.113,3.113,0,0,0,24.067,13.861Zm-6.456,25.78a1.18,1.18,0,0,0-2.195-.869,3.372,3.372,0,0,0-.2,1.768,3.27,3.27,0,0,0,.747,1.616,3.537,3.537,0,0,0,1.465,1.013,1.18,1.18,0,0,0,.821-2.213,1.178,1.178,0,0,1-.491-.332.911.911,0,0,1-.21-.451A1.014,1.014,0,0,1,17.611,39.642Zm1.972-2.878a1.18,1.18,0,0,1,1.129-1.229,3.293,3.293,0,0,0,1.5-.419,2.609,2.609,0,0,0,.981-.969,2.431,2.431,0,0,0,.313-1.289,1.18,1.18,0,1,1,2.359-.079,4.789,4.789,0,0,1-.62,2.534,4.969,4.969,0,0,1-1.859,1.85,5.655,5.655,0,0,1-2.576.73A1.18,1.18,0,0,1,19.584,36.764ZM18.721,9.925a1.18,1.18,0,1,0-.246-2.348,3.372,3.372,0,0,0-1.661.639,3.267,3.267,0,0,0-1.087,1.41,3.536,3.536,0,0,0-.22,1.767,1.18,1.18,0,0,0,2.342-.3,1.18,1.18,0,0,1,.068-.589.909.909,0,0,1,.3-.395A1.013,1.013,0,0,1,18.721,9.925Z" transform="translate(2425.18 1421.986)"/>
    <path id="패스_22775" data-name="패스 22775" class="cls-1" d="M5.306,19.981a5.026,5.026,0,0,1,1.013-.607,9.138,9.138,0,0,1-.99-2.844,9.929,9.929,0,0,1,.182-4.2,9.534,9.534,0,0,1,1.9-3.709,8.149,8.149,0,0,1,3.24-2.368,7.122,7.122,0,0,1,3.009-.493A4.512,4.512,0,0,1,18.164,2.5a5.127,5.127,0,0,1,2.774.7,3.824,3.824,0,0,1,1.5,1.8,8.062,8.062,0,0,1,.448,3.165c0,.089,0,.17,0,.242V47.345a1.182,1.182,0,0,1-1.18,1.183,5.718,5.718,0,0,1-5.236-2.8l-.029-.052a5.564,5.564,0,0,1-2.431,0,6.458,6.458,0,0,1-2.665-1.3,7.133,7.133,0,0,1-1.892-2.359,6.9,6.9,0,0,1-.721-2.676A6.1,6.1,0,0,1,5.154,29.253a5.976,5.976,0,0,1-1.328-1.737,6.4,6.4,0,0,1-.691-2.689,6.2,6.2,0,0,1,.516-2.711A5.49,5.49,0,0,1,5.306,19.981Zm9.074,5.942a5.028,5.028,0,0,1-2.7-.488,1.18,1.18,0,1,1,1.043-2.117,2.67,2.67,0,0,0,1.438.256,3.331,3.331,0,0,0,1.537-.566,4.163,4.163,0,0,0,1.249-1.337,4.4,4.4,0,0,0,.592-1.783,3.8,3.8,0,0,0-.213-1.738,1.18,1.18,0,0,1,2.206-.839,6.159,6.159,0,0,1,.355,2.819,6.754,6.754,0,0,1-.909,2.745,6.524,6.524,0,0,1-1.965,2.094A5.687,5.687,0,0,1,14.38,25.922Zm4.6,13a1.18,1.18,0,1,0,0-2.36,5.652,5.652,0,0,0-2.6.623,4.968,4.968,0,0,0-1.934,1.772,4.789,4.789,0,0,0-.724,2.506,1.18,1.18,0,0,0,2.36.018,2.429,2.429,0,0,1,.366-1.275,2.61,2.61,0,0,1,1.021-.928A3.294,3.294,0,0,1,18.976,38.922Zm-10-8.877a1.18,1.18,0,0,0,1.193,1.167,1.013,1.013,0,0,1,.52.129.908.908,0,0,1,.346.358,1.178,1.178,0,0,1,.135.577,1.18,1.18,0,1,0,2.36.024,3.536,3.536,0,0,0-.422-1.73A3.268,3.268,0,0,0,11.865,29.3a3.374,3.374,0,0,0-1.724-.443A1.18,1.18,0,0,0,8.974,30.046Zm10.142,3a1.18,1.18,0,0,0-.96-2.156,2.791,2.791,0,0,0-1.143.928,2.713,2.713,0,0,0-.5,1.391,2.911,2.911,0,0,0,.277,1.439,1.18,1.18,0,0,0,2.135-1.006.553.553,0,0,1-.058-.271.354.354,0,0,1,.064-.184A.431.431,0,0,1,19.117,33.047ZM11.5,12.455a2.833,2.833,0,0,1,1.545.033,1.18,1.18,0,1,1-.7,2.255.474.474,0,0,0-.261,0,.758.758,0,0,0-.322.185,1.115,1.115,0,0,0-.272.406,1.216,1.216,0,0,0-.084.511.962.962,0,0,0,.119.425,1.18,1.18,0,0,1-2.046,1.177,3.32,3.32,0,0,1-.43-1.469A3.576,3.576,0,0,1,9.3,14.465a3.474,3.474,0,0,1,.859-1.267A3.116,3.116,0,0,1,11.5,12.455Zm5.585-2.6A1.18,1.18,0,1,1,17.334,7.5a2.913,2.913,0,0,1,1.435.552,2.832,2.832,0,0,1,.941,1.221A3.041,3.041,0,0,1,19.9,10.8a1.18,1.18,0,0,1-2.342-.3.685.685,0,0,0-.037-.342.471.471,0,0,0-.157-.206A.554.554,0,0,0,17.088,9.851Z" transform="translate(2412.434 1421.986)"/>
  </g>
</svg>
