<svg xmlns="http://www.w3.org/2000/svg" width="160" height="160" viewBox="0 0 160 160">
  <g id="그룹_20830" data-name="그룹 20830" transform="translate(-2221 -1183)">
    <g id="그룹_20815" data-name="그룹 20815" transform="translate(21 -29)">
      <g id="그룹_20829" data-name="그룹 20829">
        <g id="Brain" transform="translate(2230.164 1236.78)">
          <path id="패스_22739" data-name="패스 22739" d="M34.5,10.19A10.765,10.765,0,0,0,23.774,2.5a12.231,12.231,0,0,0-6.619,1.663,9.124,9.124,0,0,0-3.58,4.286A19.238,19.238,0,0,0,12.505,16c0,.212,0,.406,0,.578v92.925a2.851,2.851,0,0,0,.033.436,2.818,2.818,0,0,0,2.495,2.368,2.862,2.862,0,0,0,.288.015c5.95,0,10.288-2.714,12.493-6.673l.069-.125a13.275,13.275,0,0,0,5.8,0,15.411,15.411,0,0,0,6.359-3.1A17.021,17.021,0,0,0,44.559,96.8a16.46,16.46,0,0,0,1.721-6.386,14.546,14.546,0,0,0,8.536-24.078,14.251,14.251,0,0,0,3.168-4.144,15.271,15.271,0,0,0,1.648-6.417A14.806,14.806,0,0,0,58.4,49.3a13.107,13.107,0,0,0-3.949-5.1,12,12,0,0,0-2.417-1.45A21.8,21.8,0,0,0,54.4,35.974a23.7,23.7,0,0,0-.435-10.032,22.748,22.748,0,0,0-4.528-8.85,19.445,19.445,0,0,0-7.729-5.651,16.994,16.994,0,0,0-7.18-1.177Zm3.977,49.383a12,12,0,0,0,6.353-1.589,2.816,2.816,0,1,0-2.817-4.877,6.368,6.368,0,0,1-3.383.836,7.95,7.95,0,0,1-3.748-1.106A9.937,9.937,0,0,1,31.7,49.851a10.5,10.5,0,0,1-1.69-4.152,2.816,2.816,0,1,0-5.552.944,16.131,16.131,0,0,0,2.6,6.392,15.559,15.559,0,0,0,5.008,4.675A13.567,13.567,0,0,0,38.481,59.573ZM28.269,65.9a2.816,2.816,0,0,0-5.237-2.073,8.045,8.045,0,0,0-.483,4.218A7.8,7.8,0,0,0,24.33,71.9a8.439,8.439,0,0,0,3.5,2.417,2.816,2.816,0,0,0,1.96-5.279,2.817,2.817,0,0,1-1.171-.794,2.167,2.167,0,0,1-.5-1.076A2.413,2.413,0,0,1,28.269,65.9ZM40.1,29.609a6.756,6.756,0,0,0-2.841-2.349A2.816,2.816,0,0,0,35,32.418a1.126,1.126,0,0,1,.475.4,1.806,1.806,0,0,1,.294.837,2.659,2.659,0,0,1-.143,1.157,2.9,2.9,0,0,1-.645,1.054,2.3,2.3,0,0,1-.878.581,2.816,2.816,0,0,0,1.861,5.316,7.917,7.917,0,0,0,3.067-1.983,8.529,8.529,0,0,0,1.913-3.112,8.291,8.291,0,0,0,.424-3.627A7.427,7.427,0,0,0,40.1,29.609ZM24.7,91.122A2.816,2.816,0,1,0,19.46,89.05a8.047,8.047,0,0,0-.484,4.219,7.8,7.8,0,0,0,1.781,3.855,8.439,8.439,0,0,0,3.495,2.417,2.816,2.816,0,0,0,1.96-5.28,2.81,2.81,0,0,1-1.171-.793,2.173,2.173,0,0,1-.5-1.076A2.42,2.42,0,0,1,24.7,91.122ZM29.4,84.256A2.815,2.815,0,0,1,32.1,81.324a7.856,7.856,0,0,0,3.581-1,6.226,6.226,0,0,0,2.342-2.312,5.8,5.8,0,0,0,.748-3.076,2.816,2.816,0,1,1,5.629-.189,11.426,11.426,0,0,1-1.48,6.047,11.857,11.857,0,0,1-4.436,4.415,13.491,13.491,0,0,1-6.145,1.742A2.816,2.816,0,0,1,29.4,84.256ZM27.345,20.216a2.816,2.816,0,1,0-.587-5.6,8.045,8.045,0,0,0-3.963,1.524A7.8,7.8,0,0,0,20.2,19.5a8.438,8.438,0,0,0-.525,4.217,2.816,2.816,0,1,0,5.587-.707,2.815,2.815,0,0,1,.161-1.405,2.168,2.168,0,0,1,.721-.942A2.416,2.416,0,0,1,27.345,20.216Z" transform="translate(40.259 -2.5)" fill="#6adb84" fill-rule="evenodd"/>
          <path id="패스_22740" data-name="패스 22740" d="M8.321,44.21a11.99,11.99,0,0,1,2.416-1.45,21.8,21.8,0,0,1-2.362-6.787,23.692,23.692,0,0,1,.435-10.032,22.75,22.75,0,0,1,4.528-8.85,19.442,19.442,0,0,1,7.729-5.651,16.991,16.991,0,0,1,7.179-1.177A10.766,10.766,0,0,1,39,2.5a12.231,12.231,0,0,1,6.619,1.663A9.124,9.124,0,0,1,49.2,8.45,19.238,19.238,0,0,1,50.267,16c0,.212,0,.407,0,.578V109.5a2.821,2.821,0,0,1-2.816,2.822c-5.95,0-10.288-2.714-12.493-6.673l-.069-.125a13.276,13.276,0,0,1-5.8,0,15.409,15.409,0,0,1-6.358-3.1A17.019,17.019,0,0,1,18.213,96.8a16.454,16.454,0,0,1-1.721-6.386A14.545,14.545,0,0,1,7.956,66.335a14.259,14.259,0,0,1-3.168-4.144A15.278,15.278,0,0,1,3.14,55.774,14.8,14.8,0,0,1,4.372,49.3,13.1,13.1,0,0,1,8.321,44.21ZM29.97,58.387a12,12,0,0,1-6.444-1.165,2.816,2.816,0,1,1,2.488-5.052,6.369,6.369,0,0,0,3.43.611,7.946,7.946,0,0,0,3.667-1.352,9.933,9.933,0,0,0,2.981-3.19A10.5,10.5,0,0,0,37.5,43.983,9.076,9.076,0,0,0,37,39.836a2.816,2.816,0,1,1,5.264-2,14.7,14.7,0,0,1,.846,6.725,16.115,16.115,0,0,1-2.168,6.55,15.567,15.567,0,0,1-4.688,5A13.569,13.569,0,0,1,29.97,58.387ZM40.935,89.406a2.816,2.816,0,0,0-.006-5.632,13.486,13.486,0,0,0-6.212,1.487A11.853,11.853,0,0,0,30.1,89.489a11.427,11.427,0,0,0-1.728,5.981,2.816,2.816,0,1,0,5.632.044,5.8,5.8,0,0,1,.874-3.043,6.227,6.227,0,0,1,2.435-2.213A7.86,7.86,0,0,1,40.935,89.406ZM17.072,68.225a2.816,2.816,0,0,0,2.848,2.784,2.418,2.418,0,0,1,1.241.307,2.166,2.166,0,0,1,.825.853,2.81,2.81,0,0,1,.322,1.377,2.816,2.816,0,1,0,5.632.057,8.437,8.437,0,0,0-1.007-4.128,7.8,7.8,0,0,0-2.964-3.042,8.051,8.051,0,0,0-4.113-1.057A2.816,2.816,0,0,0,17.072,68.225Zm24.2,7.162a2.816,2.816,0,0,0-2.29-5.145,6.66,6.66,0,0,0-2.727,2.214,6.474,6.474,0,0,0-1.184,3.32,6.946,6.946,0,0,0,.661,3.434,2.816,2.816,0,0,0,5.095-2.4,1.319,1.319,0,0,1-.137-.648.844.844,0,0,1,.153-.439A1.028,1.028,0,0,1,41.271,75.388ZM23.106,26.254a6.759,6.759,0,0,1,3.686.078,2.816,2.816,0,1,1-1.66,5.382,1.13,1.13,0,0,0-.622-.006,1.809,1.809,0,0,0-.769.442,2.659,2.659,0,0,0-.648.969,2.9,2.9,0,0,0-.2,1.22,2.294,2.294,0,0,0,.285,1.013,2.816,2.816,0,1,1-4.882,2.808,7.921,7.921,0,0,1-1.026-3.506,8.533,8.533,0,0,1,.586-3.605A8.289,8.289,0,0,1,19.9,28.027,7.434,7.434,0,0,1,23.106,26.254ZM36.43,20.041a2.816,2.816,0,0,1,.587-5.6,6.951,6.951,0,0,1,3.423,1.318,6.759,6.759,0,0,1,2.246,2.913,7.257,7.257,0,0,1,.452,3.628,2.816,2.816,0,1,1-5.587-.707,1.635,1.635,0,0,0-.089-.817,1.123,1.123,0,0,0-.375-.492A1.322,1.322,0,0,0,36.43,20.041Z" transform="translate(-3.132 -2.5)" fill="#6adb84" fill-rule="evenodd"/>
        </g>
      </g>
      <path id="타원_2708" data-name="타원 2708" d="M80,7.921A72.079,72.079,0,1,0,152.079,80,72.161,72.161,0,0,0,80,7.921M80,0A80,80,0,1,1,0,80,80,80,0,0,1,80,0Z" transform="translate(2200 1212)" fill="#6adb84"/>
    </g>
  </g>
</svg>
