<svg xmlns="http://www.w3.org/2000/svg" width="41.823" height="45.502" viewBox="0 0 41.823 45.502">
  <defs>
    <style>
      .cls-1 {
        fill: #95a4b4;
        fill-rule: evenodd;
      }
    </style>
  </defs>
  <g id="그룹_20872" data-name="그룹 20872" transform="translate(-2147.588 -1425)">
    <path id="패스_22771" data-name="패스 22771" class="cls-1" d="M341.366,690.048a1.6,1.6,0,0,0-2.269.011l-2.584,2.609-.031-.031-4.791,4.839c.018,0,.037.005.055.006l-1.238,1.25c0-.019-.005-.037-.006-.056l-8.638,8.724v.062l-2.331,2.353v-.027l-13.965,14.1c0,.008,0,.016,0,.024l-2.3,2.323a1.6,1.6,0,1,0,2.28,2.257l1.235-1.248a7.044,7.044,0,0,0,1.348,1.464A6.384,6.384,0,0,0,310.768,730a5.5,5.5,0,0,0,2.4,0l.029.052a5.647,5.647,0,0,0,5.172,2.762,1.167,1.167,0,0,0,1.166-1.168V714.376l2.331-2.353v19.587a1.138,1.138,0,0,0,.014.181,1.167,1.167,0,0,0,1.033.98c.04,0,.079.006.119.006a5.648,5.648,0,0,0,5.172-2.762l.029-.052a5.5,5.5,0,0,0,2.4,0,6.38,6.38,0,0,0,2.632-1.284,7.045,7.045,0,0,0,1.87-2.328,6.809,6.809,0,0,0,.712-2.644,6.021,6.021,0,0,0,3.534-9.967,5.9,5.9,0,0,0,1.311-1.716,6.32,6.32,0,0,0,.682-2.656,6.134,6.134,0,0,0-.51-2.681,5.425,5.425,0,0,0-1.635-2.111,4.952,4.952,0,0,0-1-.6,9.025,9.025,0,0,0,.98-2.805,9.808,9.808,0,0,0-.18-4.153,9.414,9.414,0,0,0-.622-1.7l2.971-3A1.6,1.6,0,0,0,341.366,690.048Zm-25.694,33.277a3.255,3.255,0,0,0-1.5.353,2.576,2.576,0,0,0-1.008.916,2.4,2.4,0,0,0-.362,1.26,1.166,1.166,0,1,1-2.332-.018,4.729,4.729,0,0,1,.715-2.476,4.9,4.9,0,0,1,1.911-1.75,5.586,5.586,0,0,1,2.572-.616,1.166,1.166,0,0,1,0,2.331Zm-.6-3.668a1.156,1.156,0,0,1-.826.062l1.437-1.451A1.162,1.162,0,0,1,315.071,719.656Zm13.156,7.142a1.166,1.166,0,0,1-1.5.687,3.49,3.49,0,0,1-1.447-1,3.229,3.229,0,0,1-.737-1.6,3.329,3.329,0,0,1,.2-1.747,1.166,1.166,0,1,1,2.169.858,1,1,0,0,0-.066.526.9.9,0,0,0,.207.446,1.161,1.161,0,0,0,.485.328A1.166,1.166,0,0,1,328.227,726.8Zm-.017-9.755a3.491,3.491,0,0,1-1.449-1,3.228,3.228,0,0,1-.737-1.6,3.331,3.331,0,0,1,.2-1.746,1.166,1.166,0,0,1,2.168.858,1,1,0,0,0-.062.525.9.9,0,0,0,.207.445,1.17,1.17,0,0,0,.485.329,1.166,1.166,0,0,1-.811,2.185Zm6.247,2.681a4.907,4.907,0,0,1-1.836,1.828,5.584,5.584,0,0,1-2.544.721,1.166,1.166,0,0,1-1.217-1.113v0a1.165,1.165,0,0,1,1.115-1.214h0a3.253,3.253,0,0,0,1.482-.414,2.576,2.576,0,0,0,.97-.957,2.4,2.4,0,0,0,.31-1.273,1.166,1.166,0,1,1,2.33-.078A4.73,4.73,0,0,1,334.456,719.725Zm.791-9.443a4.969,4.969,0,0,1-2.628.658,5.616,5.616,0,0,1-2.656-.771,6.44,6.44,0,0,1-2.073-1.935,6.671,6.671,0,0,1-.769-1.519l1.864-1.882a1.151,1.151,0,0,1,.128.364,4.341,4.341,0,0,0,.7,1.719,4.115,4.115,0,0,0,1.317,1.236,3.289,3.289,0,0,0,1.552.458,2.634,2.634,0,0,0,1.4-.346,1.166,1.166,0,1,1,1.166,2.019Zm-1.433-10.326a3.427,3.427,0,0,1-.176,1.5,3.525,3.525,0,0,1-.792,1.288,3.275,3.275,0,0,1-1.27.821,1.161,1.161,0,0,1-1.131-.21l3.368-3.4Z" transform="translate(1847.57 737.69)"/>
    <path id="패스_22772" data-name="패스 22772" class="cls-1" d="M356.244,689.036v9.7l11.811-11.929a7.03,7.03,0,0,0-2.695-.385l-.011-.031a4.456,4.456,0,0,0-4.44-3.184,5.066,5.066,0,0,0-2.74.689,3.777,3.777,0,0,0-1.482,1.774,7.96,7.96,0,0,0-.443,3.126Zm3.185,1.21a3.229,3.229,0,0,1,1.074-1.391,3.328,3.328,0,0,1,1.641-.631l.05-.005a1.166,1.166,0,0,1,.193,2.323,1,1,0,0,0-.5.185.9.9,0,0,0-.3.39,1.161,1.161,0,0,0-.067.582c0,.01,0,.019,0,.029a1.166,1.166,0,0,1-2.317.263A3.491,3.491,0,0,1,359.429,690.246Z" transform="translate(1813.191 741.795)"/>
    <path id="패스_22773" data-name="패스 22773" class="cls-1" d="M302.93,712.717a1.162,1.162,0,0,0-.133-.57.9.9,0,0,0-.341-.353,1,1,0,0,0-.514-.127h0a1.166,1.166,0,0,1-1.179-1.153h0a1.166,1.166,0,0,1,1.152-1.179,3.334,3.334,0,0,1,1.7.437,3.229,3.229,0,0,1,1.193,1.206l9.694-9.79V688.895a7.958,7.958,0,0,0-.442-3.125,3.777,3.777,0,0,0-1.482-1.775,5.066,5.066,0,0,0-2.74-.689,4.457,4.457,0,0,0-4.452,3.214,7.028,7.028,0,0,0-2.972.487,8.05,8.05,0,0,0-3.2,2.339,9.421,9.421,0,0,0-1.875,3.664,9.812,9.812,0,0,0-.18,4.153,9.024,9.024,0,0,0,.978,2.81,4.964,4.964,0,0,0-1,.6,5.425,5.425,0,0,0-1.635,2.107,6.133,6.133,0,0,0-.51,2.68,6.32,6.32,0,0,0,.682,2.656,5.9,5.9,0,0,0,1.311,1.716,6.012,6.012,0,0,0,.558,8.582l5.4-5.45A1.163,1.163,0,0,1,302.93,712.717Zm4.836-23.453a1.166,1.166,0,0,1,1.253-1.015,2.881,2.881,0,0,1,1.417.545,2.794,2.794,0,0,1,.93,1.206,3,3,0,0,1,.187,1.5,1.166,1.166,0,0,1-2.316-.264c0-.01,0-.019,0-.029a.679.679,0,0,0-.037-.338.464.464,0,0,0-.155-.2.547.547,0,0,0-.272-.1A1.166,1.166,0,0,1,307.766,689.265Zm-.364,14.3a4.113,4.113,0,0,0,1.234-1.321,4.348,4.348,0,0,0,.583-1.762,3.756,3.756,0,0,0-.207-1.717,1.166,1.166,0,1,1,2.165-.866l.014.038a6.085,6.085,0,0,1,.35,2.784,6.671,6.671,0,0,1-.9,2.712,6.45,6.45,0,0,1-1.941,2.07,5.613,5.613,0,0,1-2.6.942,4.965,4.965,0,0,1-2.667-.482,1.166,1.166,0,1,1,1-2.106l.03.015a2.634,2.634,0,0,0,1.42.253A3.29,3.29,0,0,0,307.4,703.561Zm-6.315-8.437a3.426,3.426,0,0,1,.846-1.251,3.072,3.072,0,0,1,1.327-.734,2.8,2.8,0,0,1,1.526.032,1.166,1.166,0,1,1-.687,2.228.469.469,0,0,0-.258,0,.753.753,0,0,0-.318.183,1.1,1.1,0,0,0-.268.4,1.2,1.2,0,0,0-.083.505.951.951,0,0,0,.118.419,1.166,1.166,0,1,1-2.016,1.172l0-.009a3.281,3.281,0,0,1-.425-1.451A3.529,3.529,0,0,1,301.087,695.125Z" transform="translate(1852.598 741.732)"/>
  </g>
</svg>
