<svg xmlns="http://www.w3.org/2000/svg" xmlns:xlink="http://www.w3.org/1999/xlink" width="35" height="35" viewBox="0 0 35 35">
  <defs>
    <style>
      .cls-1 {
        fill: #fff;
        opacity: 0;
      }

      .cls-2 {
        clip-path: url(#clip-path);
      }

      .cls-3 {
        fill: #95a4b4;
        fill-rule: evenodd;
      }
    </style>
    <clipPath id="clip-path">
      <rect id="사각형_6410" data-name="사각형 6410" class="cls-1" width="35" height="35" transform="translate(-19067 17613)"/>
    </clipPath>
  </defs>
  <g id="마스크_그룹_350" data-name="마스크 그룹 350" class="cls-2" transform="translate(19067 -17613)">
    <path id="패스_22771" data-name="패스 22771" class="cls-3" d="M323.1,689.828a.844.844,0,0,0-1.194.006l-1.359,1.373-.016-.016-2.521,2.546.029,0-.651.658c0-.01,0-.019,0-.029l-4.545,4.59v.033l-1.226,1.238v-.014l-7.348,7.42s0,.008,0,.013l-1.21,1.222a.844.844,0,0,0,1.2,1.188l.65-.656a3.707,3.707,0,0,0,.709.771,3.359,3.359,0,0,0,1.385.675,2.9,2.9,0,0,0,1.263,0l.015.027A2.971,2.971,0,0,0,311,712.327a.614.614,0,0,0,.613-.615v-9.085l1.226-1.238v10.305a.6.6,0,0,0,.007.1.614.614,0,0,0,.543.516c.021,0,.042,0,.063,0a2.972,2.972,0,0,0,2.721-1.453l.015-.027a2.9,2.9,0,0,0,1.263,0,3.357,3.357,0,0,0,1.385-.675,3.707,3.707,0,0,0,.984-1.225,3.582,3.582,0,0,0,.375-1.391,3.168,3.168,0,0,0,1.859-5.244,3.1,3.1,0,0,0,.69-.9,3.324,3.324,0,0,0,.359-1.4,3.226,3.226,0,0,0-.268-1.41,2.854,2.854,0,0,0-.86-1.111,2.6,2.6,0,0,0-.526-.316,4.749,4.749,0,0,0,.515-1.476,5.16,5.16,0,0,0-.095-2.185,4.95,4.95,0,0,0-.327-.895l1.563-1.579A.844.844,0,0,0,323.1,689.828Zm-13.519,17.508a1.712,1.712,0,0,0-.789.186,1.355,1.355,0,0,0-.53.482,1.263,1.263,0,0,0-.19.663.613.613,0,0,1-1.227-.01,2.488,2.488,0,0,1,.376-1.3,2.581,2.581,0,0,1,1.006-.921,2.939,2.939,0,0,1,1.353-.324.613.613,0,0,1,0,1.227Zm-.316-1.93a.609.609,0,0,1-.435.033l.756-.764A.612.612,0,0,1,309.26,705.406Zm6.922,3.758a.613.613,0,0,1-.788.361,1.836,1.836,0,0,1-.761-.526,1.7,1.7,0,0,1-.388-.84,1.751,1.751,0,0,1,.105-.919.614.614,0,1,1,1.141.451.527.527,0,0,0-.035.277.474.474,0,0,0,.109.234.61.61,0,0,0,.255.173A.613.613,0,0,1,316.182,709.163Zm-.009-5.132a1.838,1.838,0,0,1-.762-.526,1.7,1.7,0,0,1-.388-.84,1.753,1.753,0,0,1,.105-.919.613.613,0,0,1,1.141.451.525.525,0,0,0-.033.276.473.473,0,0,0,.109.234.616.616,0,0,0,.255.173.613.613,0,0,1-.427,1.15Zm3.287,1.411a2.582,2.582,0,0,1-.966.962,2.938,2.938,0,0,1-1.339.379.613.613,0,0,1-.64-.585v0a.613.613,0,0,1,.587-.639h0a1.712,1.712,0,0,0,.78-.218,1.356,1.356,0,0,0,.51-.5,1.264,1.264,0,0,0,.163-.67.613.613,0,0,1,1.226-.041A2.489,2.489,0,0,1,319.46,705.442Zm.416-4.968a2.615,2.615,0,0,1-1.383.346,2.954,2.954,0,0,1-1.4-.406,3.389,3.389,0,0,1-1.091-1.018,3.509,3.509,0,0,1-.4-.8l.981-.99a.605.605,0,0,1,.067.191,2.285,2.285,0,0,0,.368.9,2.165,2.165,0,0,0,.693.65,1.731,1.731,0,0,0,.816.241,1.386,1.386,0,0,0,.737-.182.613.613,0,1,1,.614,1.062Zm-.754-5.433a1.8,1.8,0,0,1-.092.79,1.856,1.856,0,0,1-.417.678,1.724,1.724,0,0,1-.668.432.611.611,0,0,1-.6-.11l1.772-1.79Z" transform="translate(-19361.844 16929.699)"/>
    <path id="패스_22772" data-name="패스 22772" class="cls-3" d="M356.237,686.273v5.1l6.215-6.276a3.7,3.7,0,0,0-1.418-.2l-.006-.016a2.345,2.345,0,0,0-2.336-1.675,2.666,2.666,0,0,0-1.442.362,1.987,1.987,0,0,0-.78.933,4.188,4.188,0,0,0-.233,1.645Zm1.676.637a1.7,1.7,0,0,1,.565-.732,1.752,1.752,0,0,1,.863-.332l.026,0a.613.613,0,0,1,.1,1.222.529.529,0,0,0-.262.1.472.472,0,0,0-.157.205.611.611,0,0,0-.035.306l0,.015a.613.613,0,0,1-1.219.139A1.837,1.837,0,0,1,357.913,686.909Z" transform="translate(-19405.244 16934.881)"/>
    <path id="패스_22773" data-name="패스 22773" class="cls-3" d="M299.168,698.779a.611.611,0,0,0-.07-.3.473.473,0,0,0-.18-.186.527.527,0,0,0-.27-.067h0a.614.614,0,0,1-.62-.607h0a.613.613,0,0,1,.606-.62,1.754,1.754,0,0,1,.9.23,1.7,1.7,0,0,1,.628.634l5.1-5.151v-6.468a4.187,4.187,0,0,0-.232-1.644,1.988,1.988,0,0,0-.78-.934,2.665,2.665,0,0,0-1.442-.362A2.345,2.345,0,0,0,300.461,685a3.7,3.7,0,0,0-1.564.256,4.236,4.236,0,0,0-1.684,1.231,4.957,4.957,0,0,0-.986,1.928,5.163,5.163,0,0,0-.095,2.185,4.747,4.747,0,0,0,.514,1.478,2.615,2.615,0,0,0-.526.316,2.854,2.854,0,0,0-.86,1.109,3.227,3.227,0,0,0-.268,1.41,3.325,3.325,0,0,0,.359,1.4,3.106,3.106,0,0,0,.69.9,3.163,3.163,0,0,0,.294,4.515l2.839-2.867A.611.611,0,0,1,299.168,698.779Zm2.545-12.339a.613.613,0,0,1,.659-.534,1.516,1.516,0,0,1,.746.287,1.47,1.47,0,0,1,.489.635,1.579,1.579,0,0,1,.1.79.613.613,0,0,1-1.219-.139l0-.015a.357.357,0,0,0-.019-.178.244.244,0,0,0-.082-.107.288.288,0,0,0-.143-.053A.613.613,0,0,1,301.712,686.439Zm-.192,7.522a2.164,2.164,0,0,0,.649-.695,2.287,2.287,0,0,0,.307-.927,1.976,1.976,0,0,0-.109-.9.613.613,0,1,1,1.139-.456l.008.02a3.2,3.2,0,0,1,.184,1.465,3.51,3.51,0,0,1-.472,1.427,3.393,3.393,0,0,1-1.021,1.089,2.952,2.952,0,0,1-1.369.5,2.612,2.612,0,0,1-1.4-.254.613.613,0,1,1,.526-1.108l.016.008a1.386,1.386,0,0,0,.747.133A1.731,1.731,0,0,0,301.521,693.962Zm-3.323-4.439a1.8,1.8,0,0,1,.445-.658,1.616,1.616,0,0,1,.7-.386,1.472,1.472,0,0,1,.8.017.613.613,0,1,1-.361,1.172.248.248,0,0,0-.136,0,.4.4,0,0,0-.167.1.576.576,0,0,0-.141.211.631.631,0,0,0-.044.266.5.5,0,0,0,.062.221.613.613,0,1,1-1.061.616l0,0a1.727,1.727,0,0,1-.224-.764A1.856,1.856,0,0,1,298.2,689.523Z" transform="translate(-19355.492 16934.801)"/>
  </g>
</svg>
