<svg xmlns="http://www.w3.org/2000/svg" width="114" height="114" viewBox="0 0 114 114">
  <defs>
    <style>
      .cls-1, .cls-2 {
        fill: #6adb84;
      }

      .cls-2 {
        fill-rule: evenodd;
      }
    </style>
  </defs>
  <g id="그룹_21031" data-name="그룹 21031" transform="translate(-6128 -5940)">
    <path id="타원_2708" data-name="타원 2708" class="cls-1" d="M57,5.644A51.356,51.356,0,1,0,108.356,57,51.415,51.415,0,0,0,57,5.644M57,0A57,57,0,1,1,0,57,57,57,0,0,1,57,0Z" transform="translate(6128 5940)"/>
    <g id="스트레스상태" transform="translate(6164.055 5965.001)">
      <path id="패스_22837" data-name="패스 22837" class="cls-1" d="M2.1.366A1.668,1.668,0,0,1,4.422.593L11.01,8.5a1.6,1.6,0,0,1,.214,1.717,1.65,1.65,0,0,1-1.489.925H7.121l2.231,2.3A1.6,1.6,0,0,1,9.3,15.73a1.669,1.669,0,0,1-2.329-.055L2.084,10.643A1.6,1.6,0,0,1,1.762,8.89a1.648,1.648,0,0,1,1.514-.981H6.26L1.872,2.642A1.6,1.6,0,0,1,2.1.366Z" transform="translate(0.971 0)"/>
      <path id="패스_22838" data-name="패스 22838" class="cls-1" d="M15.088,23.942A6.472,6.472,0,1,0,8.5,17.471,6.53,6.53,0,0,0,15.088,23.942Z" transform="translate(5.501 6.795)"/>
      <path id="패스_22839" data-name="패스 22839" class="cls-2" d="M30.472,31.359c.619.126,1.284.26,1.947.389,1.225.238,2.5.472,3.5.611a13.682,13.682,0,0,0,1.467.14,4.73,4.73,0,0,0,1.059-.082A3.551,3.551,0,0,0,39.7,31.9a3.274,3.274,0,0,0,1.479-2.726,3.605,3.605,0,0,0-.08-.735v-.007c-.025-.117-.053-.228-.076-.315-.048-.178-.109-.384-.173-.594-.132-.427-.313-.984-.522-1.611-.42-1.259-.977-2.875-1.53-4.462s-1.107-3.161-1.521-4.334c-.207-.587-.38-1.074-.5-1.415l-.191-.537a3.31,3.31,0,0,0-4.2-1.987A3.222,3.222,0,0,0,30.364,17.3v0l.188.529c.12.339.292.824.5,1.407.412,1.168.962,2.729,1.511,4.306.205.589.409,1.178.606,1.749-.994-.2-1.968-.4-2.763-.562l-.05-.01c-.466-.1-.879-.182-1.184-.242-.151-.03-.294-.058-.412-.079-.057-.01-.13-.023-.2-.034-.037-.006-.093-.014-.159-.021h0a3.48,3.48,0,0,0-1.838.292h0c-.176.078-.328.161-.412.208-.127.071-.292.168-.428.248l-.11.065c-.355.208-.782.451-1.293.69a8.853,8.853,0,0,1-3.719.9,8.871,8.871,0,0,1-3.723-.9c-.511-.238-.939-.481-1.291-.689l-.115-.068c-.134-.079-.3-.174-.418-.243-.083-.046-.234-.129-.407-.207a3.565,3.565,0,0,0-1.457-.32,3.514,3.514,0,0,0-.407.024h0c-.068.008-.125.016-.162.022-.075.012-.148.025-.205.035-.118.022-.261.051-.411.082-.288.059-.672.141-1.107.233l-.074.016c-.784.166-1.75.371-2.739.571.178-.491.361-1,.546-1.5.466-1.276.953-2.6,1.367-3.725v0c.55-1.494.973-2.641,1.045-2.867A3.225,3.225,0,0,0,8.88,13.15a3.306,3.306,0,0,0-4.133,2.111c0-.01,0-.009,0,.006s-.021.061-.048.135c-.04.112-.1.264-.165.453-.138.378-.325.885-.545,1.483l-.09.245c-.426,1.156-.957,2.6-1.483,4.039-.563,1.542-1.124,3.1-1.547,4.316-.211.6-.394,1.147-.528,1.569-.066.208-.129.416-.179.6-.025.091-.054.208-.08.334v.007A3.625,3.625,0,0,0,0,29.177a3.277,3.277,0,0,0,1.3,2.6,3.534,3.534,0,0,0,1.292.616,4.592,4.592,0,0,0,1.141.123,12.5,12.5,0,0,0,1.514-.131c1.009-.137,2.3-.375,3.525-.618.659-.13,1.319-.266,1.934-.394V37.7a3.3,3.3,0,0,0-.462.317L5.3,42.06a3.2,3.2,0,0,0-1.132,3.064l1.647,8.9A3.288,3.288,0,0,0,9.5,56.649a3.249,3.249,0,0,0,2.837-3.5l-.653-7.05.124-.087a39.78,39.78,0,0,1,17.55,0l.13.091-.653,7.05a3.249,3.249,0,0,0,2.837,3.5,3.288,3.288,0,0,0,3.685-2.627l1.647-8.9a3.2,3.2,0,0,0-1.132-3.064l-4.941-4.044a3.29,3.29,0,0,0-.462-.316Zm7.086-5.328h0Z" transform="translate(0 8.03)"/>
      <path id="패스_22840" data-name="패스 22840" class="cls-1" d="M24.461.593A1.668,1.668,0,0,1,26.779.366a1.6,1.6,0,0,1,.232,2.276L22.623,7.909h2.984a1.648,1.648,0,0,1,1.514.981,1.6,1.6,0,0,1-.322,1.753l-4.884,5.033a1.669,1.669,0,0,1-2.329.055,1.6,1.6,0,0,1-.056-2.287l2.231-2.3H19.147a1.65,1.65,0,0,1-1.489-.925A1.6,1.6,0,0,1,17.872,8.5Z" transform="translate(11.325 0)"/>
      <path id="패스_22841" data-name="패스 22841" class="cls-1" d="M13.418.26a1.643,1.643,0,0,1,2.161.827l2.253,5.639A1.546,1.546,0,0,1,17.5,8.347a1.826,1.826,0,0,1-1.671.553l-1.565-.3,1.232,2.823a1.62,1.62,0,0,1-.937,2.1,1.652,1.652,0,0,1-2.189-.767L9.9,7.094a1.54,1.54,0,0,1,.3-1.646,1.826,1.826,0,0,1,1.687-.571l1.678.323L12.418,2.337A1.629,1.629,0,0,1,13.418.26Z" transform="translate(6.327 0.081)"/>
    </g>
  </g>
</svg>
