<svg xmlns="http://www.w3.org/2000/svg" width="40" height="54.459" viewBox="0 0 40 54.459">
  <defs>
    <style>
      .cls-1 {
        fill: #95a4b4;
      }
    </style>
  </defs>
  <path id="합치기_258" data-name="합치기 258" class="cls-1" d="M28.681,54.434a2.718,2.718,0,0,1-2.344-2.945l.539-5.933-.107-.076a36.035,36.035,0,0,0-7.181-.824,38.058,38.058,0,0,0-7.325.826l-.1.074.539,5.933a2.719,2.719,0,0,1-2.345,2.945,2.838,2.838,0,0,1-.37.025,2.721,2.721,0,0,1-2.677-2.236L5.948,44.735a2.715,2.715,0,0,1-.039-.315L3.415,46.914A2,2,0,0,1,.586,44.086l36-36a2,2,0,1,1,2.829,2.829l-7.457,7.457a2.718,2.718,0,0,1,.78,1.153l.158.452.085.246,0,.005c.089.257.2.575.327.94.309.888.777,2.242,1.257,3.647.356,1.041.865,2.539,1.264,3.756.189.579.33,1.022.432,1.355.065.216.109.371.143.5.02.076.042.167.063.265v.005a3.088,3.088,0,0,1,.066.619,2.79,2.79,0,0,1-1.222,2.294,2.906,2.906,0,0,1-1.036.433,3.685,3.685,0,0,1-.742.071l-.134,0a10.844,10.844,0,0,1-1.212-.118c-.7-.1-1.651-.268-2.893-.515-.491-.1-1.033-.208-1.609-.328v5.336a2.77,2.77,0,0,1,.381.266l4.085,3.4a2.73,2.73,0,0,1,.935,2.578l-1.361,7.488a2.721,2.721,0,0,1-2.677,2.236A2.66,2.66,0,0,1,28.681,54.434ZM21.329,29a8.5,8.5,0,0,0,1.264-.486c.424-.2.778-.407,1.069-.581l.09-.054c.123-.074.253-.151.355-.209.122-.069.233-.127.341-.175a2.916,2.916,0,0,1,1.2-.266,3.08,3.08,0,0,1,.317.017h.007l.13.017.173.03c.1.018.216.041.341.067l.837.175.141.03.041.009c.719.152,1.493.314,2.283.473-.162-.481-.334-.985-.5-1.472-.409-1.192-.864-2.512-1.249-3.623L28,22.466l-.005-.015-.029-.084ZM5.1,34.1a3.3,3.3,0,0,1-.461-.082A2.867,2.867,0,0,1,3.574,33.5,2.769,2.769,0,0,1,2.5,31.314a3.007,3.007,0,0,1,.064-.611V30.7c.018-.091.04-.185.067-.281.036-.136.083-.3.148-.507.1-.327.248-.771.437-1.32.3-.883.708-2.037,1.279-3.632.427-1.19.859-2.386,1.206-3.346l0-.01.016-.043.075-.206c.183-.5.337-.931.451-1.248.056-.156.1-.282.133-.375l0-.006L6.39,19.7c.017-.049.028-.076.032-.091l0-.01a2.723,2.723,0,0,1,5.192,1.645c-.059.188-.407,1.148-.847,2.364l-.017.049-.185.508c-.294.815-.629,1.74-.947,2.63-.1.279-.2.557-.3.831l-.007.019-.148.415c.72-.149,1.414-.3,2.026-.429l.239-.051.061-.014.191-.041L5.1,34.1ZM15.318,23.889a5.446,5.446,0,0,1,7.668-7.666L15.32,23.889h0Zm-6.256-10.7L5.025,8.957a1.361,1.361,0,0,1,.985-2.3H8.477L4.85,2.224A1.362,1.362,0,1,1,6.958.5L12.4,7.155A1.362,1.362,0,0,1,11.35,9.379H9.189l1.844,1.935a1.361,1.361,0,0,1-.986,2.3A1.35,1.35,0,0,1,9.062,13.192Zm8.891-2.39L15.91,6.038a1.306,1.306,0,0,1,.248-1.385,1.489,1.489,0,0,1,1.119-.508,1.408,1.408,0,0,1,.275.027l1.387.272-.946-2.409A1.379,1.379,0,0,1,18.821.286a1.48,1.48,0,0,1,.554-.109,1.3,1.3,0,0,1,1.231.8l1.862,4.746a1.314,1.314,0,0,1-.275,1.365,1.5,1.5,0,0,1-1.108.491,1.389,1.389,0,0,1-.274-.026L19.518,7.3,20.536,9.68a1.372,1.372,0,0,1-.775,1.768,1.482,1.482,0,0,1-.592.125A1.307,1.307,0,0,1,17.953,10.8ZM29.829,9.379H27.688a1.361,1.361,0,0,1-1.054-2.224L32.08.5a1.361,1.361,0,1,1,2.107,1.724L30.56,6.656h1.992L29.83,9.379Z"/>
</svg>
