<svg xmlns="http://www.w3.org/2000/svg" width="46.391" height="51" viewBox="0 0 46.391 51">
  <g id="그룹_20829" data-name="그룹 20829" transform="translate(-799.804 -1377)">
    <path id="패스_22739" data-name="패스 22739" d="M22.718,6.071A5,5,0,0,0,17.735,2.5a5.68,5.68,0,0,0-3.074.772A4.237,4.237,0,0,0,13,5.263a8.934,8.934,0,0,0-.5,3.507c0,.1,0,.189,0,.268V52.191a1.324,1.324,0,0,0,.015.2,1.309,1.309,0,0,0,1.159,1.1,1.329,1.329,0,0,0,.134.007,6.335,6.335,0,0,0,5.8-3.1l.032-.058a6.165,6.165,0,0,0,2.693,0A7.156,7.156,0,0,0,25.291,48.9a7.9,7.9,0,0,0,2.1-2.614,7.644,7.644,0,0,0,.8-2.966A6.755,6.755,0,0,0,32.15,32.144a6.618,6.618,0,0,0,1.471-1.924,7.091,7.091,0,0,0,.765-2.98,6.875,6.875,0,0,0-.572-3,6.086,6.086,0,0,0-1.834-2.366,5.572,5.572,0,0,0-1.122-.673,10.125,10.125,0,0,0,1.1-3.152,11.005,11.005,0,0,0-.2-4.659,10.564,10.564,0,0,0-2.1-4.11,9.03,9.03,0,0,0-3.589-2.624,7.892,7.892,0,0,0-3.334-.547ZM24.565,29a5.572,5.572,0,0,0,2.95-.738A1.308,1.308,0,1,0,26.207,26a2.957,2.957,0,0,1-1.571.388,3.692,3.692,0,0,1-1.741-.514,4.615,4.615,0,0,1-1.479-1.387,4.875,4.875,0,0,1-.785-1.928A1.308,1.308,0,1,0,18.053,23a7.491,7.491,0,0,0,1.206,2.968,7.225,7.225,0,0,0,2.326,2.171A6.3,6.3,0,0,0,24.565,29Zm-4.742,2.939a1.308,1.308,0,0,0-2.432-.962,3.736,3.736,0,0,0-.224,1.959,3.621,3.621,0,0,0,.827,1.79,3.919,3.919,0,0,0,1.623,1.122,1.308,1.308,0,0,0,.91-2.452,1.308,1.308,0,0,1-.544-.369,1.006,1.006,0,0,1-.233-.5A1.121,1.121,0,0,1,19.823,31.942Zm5.494-16.854A3.137,3.137,0,0,0,24,14a1.308,1.308,0,0,0-1.05,2.4.523.523,0,0,1,.22.187.838.838,0,0,1,.137.389,1.235,1.235,0,0,1-.066.537,1.347,1.347,0,0,1-.3.49,1.066,1.066,0,0,1-.408.27,1.308,1.308,0,0,0,.864,2.469,3.676,3.676,0,0,0,1.424-.921,3.961,3.961,0,0,0,.888-1.445,3.85,3.85,0,0,0,.2-1.684A3.449,3.449,0,0,0,25.316,15.089ZM18.163,43.654a1.308,1.308,0,1,0-2.432-.962,3.737,3.737,0,0,0-.225,1.959,3.623,3.623,0,0,0,.827,1.79,3.919,3.919,0,0,0,1.623,1.122,1.308,1.308,0,0,0,.91-2.452,1.3,1.3,0,0,1-.544-.368,1.009,1.009,0,0,1-.233-.5A1.124,1.124,0,0,1,18.163,43.654Zm2.185-3.188A1.307,1.307,0,0,1,21.6,39.1a3.648,3.648,0,0,0,1.663-.464,2.891,2.891,0,0,0,1.087-1.074,2.694,2.694,0,0,0,.347-1.429,1.308,1.308,0,1,1,2.614-.088,5.306,5.306,0,0,1-.687,2.808,5.506,5.506,0,0,1-2.06,2.05,6.265,6.265,0,0,1-2.854.809A1.308,1.308,0,0,1,20.349,40.466Zm-.955-29.739a1.308,1.308,0,1,0-.273-2.6,3.736,3.736,0,0,0-1.84.708,3.62,3.62,0,0,0-1.2,1.562,3.919,3.919,0,0,0-.244,1.958,1.308,1.308,0,1,0,2.595-.328,1.307,1.307,0,0,1,.075-.653,1.007,1.007,0,0,1,.335-.438A1.122,1.122,0,0,1,19.393,10.727Z" transform="translate(811.805 1374.5)" fill="#6adb84" fill-rule="evenodd"/>
    <path id="패스_22740" data-name="패스 22740" d="M5.541,21.869A5.568,5.568,0,0,1,6.663,21.2a10.126,10.126,0,0,1-1.1-3.152,11,11,0,0,1,.2-4.659,10.564,10.564,0,0,1,2.1-4.11A9.029,9.029,0,0,1,11.46,6.652a7.89,7.89,0,0,1,3.334-.547A5,5,0,0,1,19.787,2.5a5.68,5.68,0,0,1,3.074.772,4.237,4.237,0,0,1,1.663,1.99,8.934,8.934,0,0,1,.5,3.507c0,.1,0,.189,0,.268V52.19A1.31,1.31,0,0,1,23.71,53.5a6.335,6.335,0,0,1-5.8-3.1l-.032-.058a6.165,6.165,0,0,1-2.693,0A7.156,7.156,0,0,1,12.231,48.9a7.9,7.9,0,0,1-2.1-2.614,7.641,7.641,0,0,1-.8-2.966A6.755,6.755,0,0,1,5.372,32.144,6.621,6.621,0,0,1,3.9,30.219a7.1,7.1,0,0,1-.765-2.98,6.873,6.873,0,0,1,.572-3A6.083,6.083,0,0,1,5.541,21.869Zm10.053,6.584a5.57,5.57,0,0,1-2.993-.541,1.308,1.308,0,1,1,1.156-2.346,2.958,2.958,0,0,0,1.593.284,3.69,3.69,0,0,0,1.7-.628,4.613,4.613,0,0,0,1.384-1.481,4.875,4.875,0,0,0,.656-1.976,4.215,4.215,0,0,0-.236-1.926,1.308,1.308,0,1,1,2.444-.93,6.825,6.825,0,0,1,.393,3.123,7.483,7.483,0,0,1-1.007,3.042,7.229,7.229,0,0,1-2.177,2.32A6.3,6.3,0,0,1,15.595,28.453Zm5.092,14.4a1.308,1.308,0,0,0,0-2.615,6.262,6.262,0,0,0-2.885.69A5.5,5.5,0,0,0,15.657,42.9a5.306,5.306,0,0,0-.8,2.777,1.308,1.308,0,1,0,2.615.02,2.692,2.692,0,0,1,.406-1.413,2.892,2.892,0,0,1,1.131-1.028A3.65,3.65,0,0,1,20.687,42.857ZM9.605,33.022a1.308,1.308,0,0,0,1.322,1.293,1.123,1.123,0,0,1,.576.143,1.006,1.006,0,0,1,.383.4,1.305,1.305,0,0,1,.149.639,1.308,1.308,0,1,0,2.615.027,3.918,3.918,0,0,0-.468-1.917,3.621,3.621,0,0,0-1.376-1.413A3.739,3.739,0,0,0,10.9,31.7,1.308,1.308,0,0,0,9.605,33.022Zm11.237,3.326a1.308,1.308,0,0,0-1.064-2.389,3.093,3.093,0,0,0-1.266,1.028,3.006,3.006,0,0,0-.55,1.542,3.226,3.226,0,0,0,.307,1.595,1.308,1.308,0,0,0,2.366-1.115.612.612,0,0,1-.064-.3.392.392,0,0,1,.071-.2A.477.477,0,0,1,20.843,36.348ZM12.407,13.531a3.139,3.139,0,0,1,1.712.036,1.308,1.308,0,1,1-.771,2.5.525.525,0,0,0-.289,0,.84.84,0,0,0-.357.205,1.235,1.235,0,0,0-.3.45,1.347,1.347,0,0,0-.093.566,1.066,1.066,0,0,0,.132.471,1.308,1.308,0,1,1-2.267,1.3A3.679,3.679,0,0,1,9.7,17.432a3.963,3.963,0,0,1,.272-1.674,3.849,3.849,0,0,1,.952-1.4A3.452,3.452,0,0,1,12.407,13.531Zm6.188-2.885a1.308,1.308,0,0,1,.272-2.6,3.228,3.228,0,0,1,1.59.612A3.139,3.139,0,0,1,21.5,10.009a3.37,3.37,0,0,1,.21,1.685,1.308,1.308,0,1,1-2.595-.328.759.759,0,0,0-.041-.379.522.522,0,0,0-.174-.228A.614.614,0,0,0,18.595,10.646Z" transform="translate(796.673 1374.5)" fill="#6adb84" fill-rule="evenodd"/>
  </g>
</svg>
