<svg xmlns="http://www.w3.org/2000/svg" xmlns:xlink="http://www.w3.org/1999/xlink" width="35" height="35" viewBox="0 0 35 35">
  <defs>
    <style>
      .cls-1 {
        fill: #fff;
        opacity: 0;
      }

      .cls-2 {
        clip-path: url(#clip-path);
      }

      .cls-3, .cls-4 {
        fill: #95a4b4;
      }

      .cls-3 {
        fill-rule: evenodd;
      }
    </style>
    <clipPath id="clip-path">
      <rect id="사각형_6411" data-name="사각형 6411" class="cls-1" width="35" height="35" transform="translate(-18934 17613)"/>
    </clipPath>
  </defs>
  <g id="마스크_그룹_351" data-name="마스크 그룹 351" class="cls-2" transform="translate(18934 -17613)">
    <path id="패스_22768" data-name="패스 22768" class="cls-3" d="M573.042,692.174a2.515,2.515,0,0,1,.508-.3,4.588,4.588,0,0,1-.5-1.427,4.983,4.983,0,0,1,.091-2.108,4.781,4.781,0,0,1,.954-1.861,4.085,4.085,0,0,1,1.626-1.188,3.571,3.571,0,0,1,1.51-.247,2.264,2.264,0,0,1,2.26-1.634,2.57,2.57,0,0,1,1.392.351,1.917,1.917,0,0,1,.753.9,4.046,4.046,0,0,1,.225,1.588V705.9a.593.593,0,0,1-.592.593,2.869,2.869,0,0,1-2.627-1.405l-.015-.026a2.791,2.791,0,0,1-1.22,0,3.239,3.239,0,0,1-1.337-.652,3.577,3.577,0,0,1-.95-1.181,3.462,3.462,0,0,1-.362-1.343,3.058,3.058,0,0,1-1.8-5.063,3,3,0,0,1-.666-.871,3.215,3.215,0,0,1-.346-1.349,3.116,3.116,0,0,1,.259-1.361A2.758,2.758,0,0,1,573.042,692.174Zm4.553,2.981a2.522,2.522,0,0,1-1.355-.245.592.592,0,1,1,.52-1.064l0,0a1.339,1.339,0,0,0,.721.128,1.671,1.671,0,0,0,.771-.284,2.087,2.087,0,0,0,.627-.671,2.206,2.206,0,0,0,.3-.895,1.905,1.905,0,0,0-.107-.872.592.592,0,0,1,1.1-.45l.011.028a3.09,3.09,0,0,1,.178,1.414,3.386,3.386,0,0,1-.456,1.377,3.272,3.272,0,0,1-.986,1.051A2.85,2.85,0,0,1,577.594,695.155Zm2.306,6.524a.592.592,0,1,0,0-1.184,2.833,2.833,0,0,0-1.3.313,2.492,2.492,0,0,0-.97.889,2.4,2.4,0,0,0-.363,1.258.592.592,0,0,0,1.184.009,1.218,1.218,0,0,1,.184-.64,1.31,1.31,0,0,1,.512-.465,1.653,1.653,0,0,1,.758-.18Zm-5.019-4.453a.592.592,0,0,0,.6.586h0a.507.507,0,0,1,.261.065.454.454,0,0,1,.174.18.591.591,0,0,1,.068.29.592.592,0,0,0,1.184.012,1.775,1.775,0,0,0-.212-.868,1.638,1.638,0,0,0-.623-.64,1.693,1.693,0,0,0-.865-.222.592.592,0,0,0-.586.6Zm5.088,1.505a.592.592,0,1,0-.482-1.082,1.4,1.4,0,0,0-.573.466,1.362,1.362,0,0,0-.251.7,1.461,1.461,0,0,0,.139.722.592.592,0,0,0,1.072-.505.275.275,0,0,1-.029-.136.177.177,0,0,1,.032-.092.217.217,0,0,1,.093-.072Zm-3.82-10.333a1.42,1.42,0,0,1,.775.017.592.592,0,1,1-.351,1.132h0a.239.239,0,0,0-.131,0,.381.381,0,0,0-.162.093.559.559,0,0,0-.137.2.609.609,0,0,0-.042.256.481.481,0,0,0,.06.213.592.592,0,0,1-1.027.59,1.665,1.665,0,0,1-.216-.737,1.8,1.8,0,0,1,.126-.759,1.745,1.745,0,0,1,.431-.635A1.563,1.563,0,0,1,576.151,688.4Zm2.8-1.3a.594.594,0,1,1,.124-1.181,1.461,1.461,0,0,1,.72.277,1.42,1.42,0,0,1,.472.612,1.528,1.528,0,0,1,.095.763.592.592,0,0,1-1.175-.151h0a.344.344,0,0,0-.019-.172.234.234,0,0,0-.079-.1.278.278,0,0,0-.137-.047Z" transform="translate(-19499.523 16934.666)"/>
    <path id="패스_22750" data-name="패스 22750" class="cls-4" d="M653.555,729.606a.847.847,0,0,0-1.422-.186l-2.335,2.828h-1.671a.846.846,0,1,0,0,1.693H650.2a.847.847,0,0,0,.653-.308l1.727-2.094,2.024,4.416a.847.847,0,0,0,1.422.186l1.815-2.2h2.7a.847.847,0,1,0,0-1.693h-3.1a.846.846,0,0,0-.653.308l-1.209,1.465Z" transform="translate(-19561.191 16897.246)"/>
    <path id="패스_22770" data-name="패스 22770" class="cls-3" d="M641.675,699.309l-1.054-2.3-.209.253a2.407,2.407,0,0,1-1.084.749.59.59,0,0,1,.576.555c0,.009,0,.019,0,.028a2.4,2.4,0,0,1-.311,1.272,2.5,2.5,0,0,1-.933.929,2.839,2.839,0,0,1-1.292.366.592.592,0,0,1-.616-.567h0a.592.592,0,0,1,.567-.617h0a1.652,1.652,0,0,0,.753-.21,1.31,1.31,0,0,0,.492-.486,1.222,1.222,0,0,0,.157-.647.59.59,0,0,1,.292-.542,2.411,2.411,0,0,1-.462.047H637.2c0,.011-.005.022-.009.034a.592.592,0,0,1-.769.332,1.772,1.772,0,0,1-.7-.47,2.411,2.411,0,0,1,.185-4.662,3.385,3.385,0,0,1-.2-.685.592.592,0,1,1,1.167-.2,2.206,2.206,0,0,0,.328.829h.2l1.936-2.345a2.432,2.432,0,0,1,.855-.657,2.4,2.4,0,0,1,1.833-.072,4.98,4.98,0,0,0-.12-1.908,4.784,4.784,0,0,0-.954-1.861,4.089,4.089,0,0,0-1.625-1.188,3.574,3.574,0,0,0-1.51-.247l0-.017a2.263,2.263,0,0,0-2.258-1.617,2.572,2.572,0,0,0-1.392.351,1.918,1.918,0,0,0-.753.9,4.046,4.046,0,0,0-.224,1.584V705.9a.592.592,0,0,0,.531.59c.02,0,.04,0,.061,0a2.869,2.869,0,0,0,2.627-1.405l.015-.026a2.791,2.791,0,0,0,1.22,0,3.239,3.239,0,0,0,1.337-.652,3.578,3.578,0,0,0,.949-1.183,3.462,3.462,0,0,0,.362-1.343,3.051,3.051,0,0,0,2.217-1.587A2.393,2.393,0,0,1,641.675,699.309Zm-3.934-8.767a.483.483,0,0,0,.185-.122.615.615,0,0,0,.135-.222.561.561,0,0,0,.03-.243.38.38,0,0,0-.062-.176.235.235,0,0,0-.1-.084.592.592,0,0,1,.475-1.085,1.421,1.421,0,0,1,.6.494h0a1.561,1.561,0,0,1,.265.724,1.742,1.742,0,0,1-.089.763,1.792,1.792,0,0,1-.4.652,1.663,1.663,0,0,1-.645.417.592.592,0,0,1-.391-1.118Zm-2.923-3.564a1.64,1.64,0,0,1,.545-.707,1.692,1.692,0,0,1,.834-.321h.013a.592.592,0,1,1,.11,1.179.507.507,0,0,0-.253.092.456.456,0,0,0-.151.2.593.593,0,0,0-.034.3.592.592,0,1,1-1.175.151A1.776,1.776,0,0,1,634.818,686.978Zm1.607,16.465a.592.592,0,0,1-.754.366,1.776,1.776,0,0,1-.735-.508,1.64,1.64,0,0,1-.374-.811,1.692,1.692,0,0,1,.1-.887.592.592,0,0,1,1.1.436.507.507,0,0,0-.032.268.456.456,0,0,0,.105.226.589.589,0,0,0,.246.167A.592.592,0,0,1,636.424,703.443Z" transform="translate(-19549.658 16934.668)"/>
  </g>
</svg>
