<svg xmlns="http://www.w3.org/2000/svg" xmlns:xlink="http://www.w3.org/1999/xlink" width="35" height="35" viewBox="0 0 35 35">
  <defs>
    <style>
      .cls-1 {
        fill: #fff;
        opacity: 0;
      }

      .cls-2 {
        clip-path: url(#clip-path);
      }

      .cls-3 {
        fill: #6adb84;
        fill-rule: evenodd;
      }
    </style>
    <clipPath id="clip-path">
      <rect id="사각형_6412" data-name="사각형 6412" class="cls-1" width="35" height="35" transform="translate(-18799 17613)"/>
    </clipPath>
  </defs>
  <g id="마스크_그룹_352" data-name="마스크 그룹 352" class="cls-2" transform="translate(18799 -17613)">
    <path id="패스_22774" data-name="패스 22774" class="cls-3" d="M17.189,4.139A2.294,2.294,0,0,0,14.9,2.5a2.607,2.607,0,0,0-1.411.354,1.945,1.945,0,0,0-.763.913,4.1,4.1,0,0,0-.228,1.61c0,.045,0,.087,0,.123V25.3a.608.608,0,0,0,.007.093.6.6,0,0,0,.532.5.61.61,0,0,0,.061,0,2.908,2.908,0,0,0,2.663-1.422l.015-.027a2.83,2.83,0,0,0,1.236,0,3.285,3.285,0,0,0,1.355-.66,3.627,3.627,0,0,0,.962-1.2,3.508,3.508,0,0,0,.367-1.361A3.1,3.1,0,0,0,21.518,16.1a3.037,3.037,0,0,0,.675-.883,3.254,3.254,0,0,0,.351-1.367,3.155,3.155,0,0,0-.263-1.379,2.793,2.793,0,0,0-.842-1.086,2.557,2.557,0,0,0-.515-.309,4.646,4.646,0,0,0,.5-1.446A5.05,5.05,0,0,0,21.336,7.5a4.848,4.848,0,0,0-.965-1.886,4.144,4.144,0,0,0-1.647-1.2,3.622,3.622,0,0,0-1.53-.251Zm.848,10.524a2.558,2.558,0,0,0,1.354-.339.6.6,0,1,0-.6-1.039,1.357,1.357,0,0,1-.721.178,1.694,1.694,0,0,1-.8-.236,2.118,2.118,0,0,1-.679-.636,2.237,2.237,0,0,1-.36-.885.6.6,0,0,0-1.183.2A3.438,3.438,0,0,0,15.6,13.27a3.316,3.316,0,0,0,1.067,1A2.892,2.892,0,0,0,18.037,14.663ZM15.86,16.012a.6.6,0,0,0-1.116-.442,1.714,1.714,0,0,0-.1.9,1.662,1.662,0,0,0,.38.822,1.8,1.8,0,0,0,.745.515.6.6,0,1,0,.418-1.125.6.6,0,0,1-.25-.169.462.462,0,0,1-.107-.229A.514.514,0,0,1,15.86,16.012Zm2.521-7.734a1.44,1.44,0,0,0-.606-.5.6.6,0,1,0-.482,1.1.24.24,0,0,1,.1.086.385.385,0,0,1,.063.178.567.567,0,0,1-.03.247.618.618,0,0,1-.137.225.489.489,0,0,1-.187.124.6.6,0,1,0,.4,1.133,1.687,1.687,0,0,0,.654-.423,1.818,1.818,0,0,0,.408-.663,1.767,1.767,0,0,0,.09-.773A1.583,1.583,0,0,0,18.382,8.277ZM15.1,21.386a.6.6,0,0,0-1.116-.442,1.715,1.715,0,0,0-.1.9,1.663,1.663,0,0,0,.38.822A1.8,1.8,0,0,0,15,23.18a.6.6,0,0,0,.418-1.125.6.6,0,0,1-.25-.169.463.463,0,0,1-.107-.229A.516.516,0,0,1,15.1,21.386Zm1-1.463a.6.6,0,0,1,.574-.625,1.674,1.674,0,0,0,.763-.213,1.327,1.327,0,0,0,.5-.493,1.236,1.236,0,0,0,.159-.656.6.6,0,1,1,1.2-.04,2.435,2.435,0,0,1-.315,1.289,2.527,2.527,0,0,1-.945.941,2.876,2.876,0,0,1-1.31.371A.6.6,0,0,1,16.1,19.923ZM15.663,6.275a.6.6,0,1,0-.125-1.194,1.715,1.715,0,0,0-.845.325,1.661,1.661,0,0,0-.553.717,1.8,1.8,0,0,0-.112.9.6.6,0,0,0,1.191-.151.6.6,0,0,1,.034-.3.462.462,0,0,1,.154-.2A.515.515,0,0,1,15.663,6.275Z" transform="translate(-18793.143 17615.705)"/>
    <path id="패스_22775" data-name="패스 22775" class="cls-3" d="M4.238,11.389a2.556,2.556,0,0,1,.515-.309,4.647,4.647,0,0,1-.5-1.446A5.049,5.049,0,0,1,4.342,7.5,4.848,4.848,0,0,1,5.307,5.61a4.144,4.144,0,0,1,1.647-1.2,3.622,3.622,0,0,1,1.53-.251A2.294,2.294,0,0,1,10.776,2.5a2.607,2.607,0,0,1,1.411.354,1.945,1.945,0,0,1,.763.913,4.1,4.1,0,0,1,.228,1.61c0,.045,0,.087,0,.123V25.3a.6.6,0,0,1-.6.6,2.908,2.908,0,0,1-2.663-1.422L9.9,24.456a2.83,2.83,0,0,1-1.236,0,3.284,3.284,0,0,1-1.355-.66,3.627,3.627,0,0,1-.962-1.2,3.506,3.506,0,0,1-.367-1.361A3.1,3.1,0,0,1,4.16,16.1a3.039,3.039,0,0,1-.675-.883,3.256,3.256,0,0,1-.351-1.367A3.154,3.154,0,0,1,3.4,12.475,2.791,2.791,0,0,1,4.238,11.389ZM8.852,14.41a2.557,2.557,0,0,1-1.373-.248.6.6,0,1,1,.53-1.077,1.358,1.358,0,0,0,.731.13,1.694,1.694,0,0,0,.781-.288,2.117,2.117,0,0,0,.635-.68,2.237,2.237,0,0,0,.3-.907,1.934,1.934,0,0,0-.108-.884.6.6,0,0,1,1.122-.427,3.132,3.132,0,0,1,.18,1.433,3.434,3.434,0,0,1-.462,1.4,3.318,3.318,0,0,1-1,1.065A2.892,2.892,0,0,1,8.852,14.41Zm2.337,6.61a.6.6,0,1,0,0-1.2,2.874,2.874,0,0,0-1.324.317,2.526,2.526,0,0,0-.983.9,2.435,2.435,0,0,0-.368,1.275.6.6,0,0,0,1.2.009,1.235,1.235,0,0,1,.186-.648,1.327,1.327,0,0,1,.519-.472A1.675,1.675,0,0,1,11.189,21.021ZM6.1,16.507a.6.6,0,0,0,.607.593.515.515,0,0,1,.265.065.462.462,0,0,1,.176.182.6.6,0,0,1,.069.293.6.6,0,0,0,1.2.012,1.8,1.8,0,0,0-.215-.88,1.662,1.662,0,0,0-.632-.648A1.716,1.716,0,0,0,6.7,15.9.6.6,0,0,0,6.1,16.507Zm5.157,1.526a.6.6,0,0,0-.488-1.1,1.419,1.419,0,0,0-.581.472,1.38,1.38,0,0,0-.252.708,1.48,1.48,0,0,0,.141.732.6.6,0,0,0,1.086-.512.281.281,0,0,1-.029-.138.18.18,0,0,1,.033-.094A.219.219,0,0,1,11.26,18.033ZM7.389,7.562a1.441,1.441,0,0,1,.786.017A.6.6,0,1,1,7.82,8.726a.241.241,0,0,0-.133,0,.386.386,0,0,0-.164.094.567.567,0,0,0-.138.207.618.618,0,0,0-.043.26A.489.489,0,0,0,7.4,9.5a.6.6,0,0,1-1.041.6,1.688,1.688,0,0,1-.219-.747,1.818,1.818,0,0,1,.125-.768,1.766,1.766,0,0,1,.437-.644A1.584,1.584,0,0,1,7.389,7.562Zm2.84-1.324a.6.6,0,1,1,.125-1.194,1.481,1.481,0,0,1,.73.281,1.44,1.44,0,0,1,.479.621,1.546,1.546,0,0,1,.1.773.6.6,0,0,1-1.191-.151.348.348,0,0,0-.019-.174.239.239,0,0,0-.08-.1A.282.282,0,0,0,10.229,6.238Z" transform="translate(-18795.02 17615.705)"/>
  </g>
</svg>
