<svg id="스트레스상태" xmlns="http://www.w3.org/2000/svg" width="35" height="55" viewBox="0 0 35 55">
  <defs>
    <style>
      .cls-1, .cls-2 {
        fill: #6adb84;
      }

      .cls-2 {
        fill-rule: evenodd;
      }
    </style>
  </defs>
  <path id="패스_22837" data-name="패스 22837" class="cls-1" d="M2.014.311A1.417,1.417,0,0,1,3.984.5l5.6,6.722a1.356,1.356,0,0,1,.182,1.459A1.4,1.4,0,0,1,8.5,9.472H6.278l1.9,1.954a1.358,1.358,0,0,1-.048,1.944,1.418,1.418,0,0,1-1.979-.047L2,9.046a1.357,1.357,0,0,1-.274-1.49A1.4,1.4,0,0,1,3.01,6.722H5.546L1.817,2.246A1.358,1.358,0,0,1,2.014.311Z" transform="translate(0.6)"/>
  <path id="패스_22838" data-name="패스 22838" class="cls-1" d="M14.1,22a5.5,5.5,0,1,0-5.6-5.5A5.551,5.551,0,0,0,14.1,22Z" transform="translate(3.4 4.125)"/>
  <path id="패스_22839" data-name="패스 22839" class="cls-2" d="M25.9,28.6c.526.107,1.091.221,1.655.331,1.041.2,2.129.4,2.976.52a11.628,11.628,0,0,0,1.247.119,4.02,4.02,0,0,0,.9-.07,3.018,3.018,0,0,0,1.065-.437A2.783,2.783,0,0,0,35,26.75a3.064,3.064,0,0,0-.068-.625V26.12c-.021-.1-.045-.194-.065-.268-.04-.151-.092-.326-.147-.5-.112-.363-.266-.836-.444-1.369-.357-1.07-.83-2.444-1.3-3.793S32.034,17.5,31.682,16.5c-.176-.5-.323-.913-.426-1.2l-.162-.456a2.813,2.813,0,0,0-3.567-1.689,2.738,2.738,0,0,0-1.719,3.5h0l.16.449c.1.288.248.7.424,1.2.351.993.818,2.32,1.285,3.66.174.5.348,1,.515,1.487-.844-.167-1.673-.338-2.348-.478l-.042-.009c-.4-.082-.747-.154-1.006-.206-.128-.026-.25-.049-.35-.068-.049-.009-.11-.02-.174-.029-.031,0-.079-.012-.136-.018h0a2.958,2.958,0,0,0-1.562.248h0c-.15.067-.279.137-.351.177-.108.06-.248.143-.364.211l-.093.055c-.3.177-.665.383-1.1.586a7.524,7.524,0,0,1-3.161.765,7.54,7.54,0,0,1-3.165-.765c-.434-.2-.8-.409-1.1-.585l-.1-.058c-.114-.067-.251-.148-.355-.206-.07-.039-.2-.11-.346-.176a3.03,3.03,0,0,0-1.239-.272,2.987,2.987,0,0,0-.346.02h0c-.057.007-.106.014-.138.019-.064.01-.126.021-.174.03-.1.019-.222.043-.349.07-.244.05-.571.12-.941.2l-.063.013c-.667.141-1.488.316-2.328.486.151-.417.307-.846.464-1.277.4-1.085.81-2.209,1.162-3.166v0c.468-1.27.827-2.245.889-2.437a2.741,2.741,0,0,0-1.827-3.45,2.81,2.81,0,0,0-3.513,1.795c0-.008,0-.008,0,0l-.041.115c-.034.1-.081.225-.14.385-.117.321-.276.752-.464,1.261l-.077.208c-.362.983-.814,2.208-1.26,3.433C1.573,21.641,1.1,22.964.736,24c-.179.514-.335.975-.449,1.334-.056.177-.11.354-.152.512-.021.077-.046.177-.068.284v.006A3.081,3.081,0,0,0,0,26.75a2.786,2.786,0,0,0,1.1,2.213,3,3,0,0,0,1.1.524,3.9,3.9,0,0,0,.97.1A10.62,10.62,0,0,0,4.46,29.48c.857-.116,1.954-.319,3-.525.56-.111,1.121-.226,1.643-.335v5.374a2.808,2.808,0,0,0-.393.269L4.507,37.7a2.723,2.723,0,0,0-.962,2.6l1.4,7.563A2.794,2.794,0,0,0,8.077,50.1a2.762,2.762,0,0,0,2.411-2.974l-.555-5.992.105-.074a33.812,33.812,0,0,1,14.917,0l.11.077-.555,5.992A2.762,2.762,0,0,0,26.922,50.1a2.794,2.794,0,0,0,3.132-2.233l1.4-7.563a2.723,2.723,0,0,0-.962-2.6l-4.2-3.437a2.8,2.8,0,0,0-.392-.269Zm6.023-4.529h0Z" transform="translate(0 4.875)"/>
  <path id="패스_22840" data-name="패스 22840" class="cls-1" d="M23.416.5a1.417,1.417,0,0,1,1.97-.193,1.358,1.358,0,0,1,.2,1.935L21.854,6.722H24.39a1.4,1.4,0,0,1,1.287.834,1.357,1.357,0,0,1-.274,1.49l-4.151,4.278a1.418,1.418,0,0,1-1.979.047,1.358,1.358,0,0,1-.048-1.944l1.9-1.954H18.9a1.4,1.4,0,0,1-1.265-.786,1.356,1.356,0,0,1,.182-1.459Z" transform="translate(7 0)"/>
  <path id="패스_22841" data-name="패스 22841" class="cls-1" d="M12.872.24a1.4,1.4,0,0,1,1.837.7l1.915,4.793a1.314,1.314,0,0,1-.284,1.379,1.552,1.552,0,0,1-1.42.47l-1.33-.256,1.047,2.4a1.377,1.377,0,0,1-.8,1.785,1.4,1.4,0,0,1-1.86-.652l-2.1-4.813a1.309,1.309,0,0,1,.255-1.4,1.552,1.552,0,0,1,1.434-.485l1.426.275-.973-2.434A1.385,1.385,0,0,1,12.872.24Z" transform="translate(3.911 0.049)"/>
</svg>
