<svg xmlns="http://www.w3.org/2000/svg" width="38.061" height="54.459" viewBox="0 0 38.061 54.459">
  <defs>
    <style>
      .cls-1 {
        fill: #95a4b4;
      }
    </style>
  </defs>
  <path id="합치기_268" data-name="합치기 268" class="cls-1" d="M26.8,54.434a2.734,2.734,0,0,1-2.4-2.945l.552-5.933-.11-.076a37.715,37.715,0,0,0-7.35-.824,39.8,39.8,0,0,0-7.5.827l-.105.073.553,5.933a2.734,2.734,0,0,1-2.4,2.945,2.966,2.966,0,0,1-.379.025,2.768,2.768,0,0,1-2.74-2.236L3.53,44.735a2.691,2.691,0,0,1,.958-2.578l4.182-3.4a2.817,2.817,0,0,1,.391-.266v-.943a4.66,4.66,0,0,0,2.57.769h4.127a4.677,4.677,0,0,0,3.616-1.7l.4-.479,2.038,4.447a4.7,4.7,0,0,0,4.261,2.734,4.647,4.647,0,0,0,1.953-.427l1.222-.746.44-.533.676.551a2.692,2.692,0,0,1,.958,2.578l-1.394,7.488A2.8,2.8,0,0,1,26.8,54.434ZM24.534,39.866l-4.033-8.8-3.442,4.172a1.69,1.69,0,0,1-1.3.613H11.632a1.687,1.687,0,1,1,0-3.373H14.96l4.652-5.635a1.686,1.686,0,0,1,2.834.371l4.032,8.8,2.41-2.921a1.688,1.688,0,0,1,1.3-.613h6.186a1.687,1.687,0,0,1,0,3.374H30.985l-3.617,4.379a1.686,1.686,0,0,1-2.834-.371ZM3.119,34.127a3.859,3.859,0,0,1-.926-.1A2.979,2.979,0,0,1,1.1,33.505,2.755,2.755,0,0,1,0,31.314a3.124,3.124,0,0,1,.063-.6l0-.007,0-.006c.017-.085.04-.176.068-.28.037-.136.085-.3.152-.507.108-.339.258-.784.446-1.321.315-.9.743-2.088,1.309-3.632.385-1.051.769-2.086,1.106-3l.148-.4.077-.206.064-.172.4-1.076.139-.382.008-.023c.018-.049.028-.076.032-.091a.014.014,0,0,1,0-.006,2.771,2.771,0,0,1,2.657-1.9,2.841,2.841,0,0,1,.841.127,2.752,2.752,0,0,1,1.646,1.363,2.652,2.652,0,0,1,.173,2.053c-.061.191-.421,1.163-.885,2.413l-.055.148c-.382,1.033-.743,2.009-1.1,2.991-.157.427-.311.851-.462,1.264.769-.155,1.536-.316,2.153-.446l.165-.034.063-.014c.381-.081.7-.149.936-.2l.348-.069.056-.01.118-.02.017,0,.12-.016a3.156,3.156,0,0,1,.346-.02,3.071,3.071,0,0,1,1.232.268c.142.064.266.131.346.176s.209.119.312.18l.041.024.1.057c.226.132.5.289.824.45l-.458.554H11.631a4.7,4.7,0,0,0-4.687,4.652c-1.054.2-1.872.341-2.5.427a10.434,10.434,0,0,1-1.282.11Zm24.136-4.154-1.054-2.3c.554.114,1.252.256,1.867.376-.149-.428-.316-.91-.513-1.471-.411-1.172-.877-2.493-1.279-3.624-.126-.354-.236-.663-.327-.916l-.1-.268-.158-.445a2.652,2.652,0,0,1,.109-2.06,2.744,2.744,0,0,1,1.6-1.411,2.838,2.838,0,0,1,.92-.153,2.789,2.789,0,0,1,2.632,1.825l.161.452.285.8,0,.005.137.385c.318.895.8,2.254,1.287,3.648.507,1.444.967,2.778,1.3,3.755l.125.375H30.19a4.7,4.7,0,0,0-2.932,1.029h0ZM16.2,25.729a5.447,5.447,0,1,1,6.674-5.307,5.387,5.387,0,0,1-.593,2.473,4.673,4.673,0,0,0-3.317.222l-1.223.747L16.2,25.728h0ZM26.36,13.239a1.361,1.361,0,0,1-.046-1.925l1.844-1.935H26a1.362,1.362,0,0,1-1.054-2.224L30.389.5A1.362,1.362,0,1,1,32.5,2.224L28.87,6.656h2.466a1.361,1.361,0,0,1,.986,2.3l-4.037,4.235a1.363,1.363,0,0,1-1.925.047Zm-19.8-.047L2.525,8.957a1.361,1.361,0,0,1,.985-2.3H5.977L2.35,2.224A1.362,1.362,0,1,1,4.458.5L9.9,7.155A1.362,1.362,0,0,1,8.85,9.379H6.689l1.844,1.935a1.361,1.361,0,0,1-.985,2.3A1.351,1.351,0,0,1,6.562,13.192Zm9.286-2.39L13.805,6.038a1.309,1.309,0,0,1,.248-1.385,1.492,1.492,0,0,1,1.12-.508,1.405,1.405,0,0,1,.274.027l1.387.272-.946-2.409A1.38,1.38,0,0,1,16.716.286a1.485,1.485,0,0,1,.555-.109,1.3,1.3,0,0,1,1.23.8l1.863,4.746a1.315,1.315,0,0,1-.276,1.365,1.5,1.5,0,0,1-1.107.491,1.4,1.4,0,0,1-.274-.026L17.413,7.3,18.431,9.68a1.371,1.371,0,0,1-.774,1.768,1.484,1.484,0,0,1-.593.125A1.307,1.307,0,0,1,15.848,10.8Z"/>
</svg>
