<svg id="Heart_Rate" data-name="Heart Rate" xmlns="http://www.w3.org/2000/svg" width="54" height="51" viewBox="0 0 54 51">
  <defs>
    <style>
      .cls-1 {
        fill: #6adb84;
      }
    </style>
  </defs>
  <path id="패스_22741" data-name="패스 22741" class="cls-1" d="M2.5,20.5c0-9.306,6.921-17,15.643-17A14.983,14.983,0,0,1,29.5,8.838,15.023,15.023,0,0,1,40.857,3.5c8.722,0,15.643,7.693,15.643,17a27,27,0,0,1-.776,6.292H47.141l-3.15-3.227a2.1,2.1,0,0,0-3.414.567l-2.941,6.025-2.276-2.331a2.1,2.1,0,0,0-3.242.275l-4.786,6.863L24.2,21.031a2.116,2.116,0,0,0-3.94-.569l-5.143,9.484-2.457-3.356a2.1,2.1,0,0,0-3.213-.234L7.6,28.247H3.433A32.551,32.551,0,0,1,2.5,20.5Z" transform="translate(-2.5 -3.5)"/>
  <path id="패스_22742" data-name="패스 22742" class="cls-1" d="M3.129,18.008C6.973,29.2,16.6,38,27.8,42.356a1.384,1.384,0,0,0,1.006,0A44.176,44.176,0,0,0,47.509,27.878a40.843,40.843,0,0,0,6.126-11.326H45.618a2.1,2.1,0,0,1-1.5-.64l-2.656-2.726-2.936,6.025a2.1,2.1,0,0,1-3.408.567l-2.376-2.438-5.206,7.478a2.11,2.11,0,0,1-3.805-.778L20.653,10.38l-4.77,8.809a2.1,2.1,0,0,1-3.563.25L9.7,15.857,8.23,17.368a2.1,2.1,0,0,1-1.5.64Z" transform="translate(-1.297 8.549)"/>
</svg>
