<svg xmlns="http://www.w3.org/2000/svg" xmlns:xlink="http://www.w3.org/1999/xlink" width="35" height="35" viewBox="0 0 35 35">
  <defs>
    <style>
      .cls-1 {
        fill: #fff;
        opacity: 0;
      }

      .cls-2 {
        clip-path: url(#clip-path);
      }

      .cls-3 {
        fill: #ff6060;
      }
    </style>
    <clipPath id="clip-path">
      <rect id="사각형_6407" data-name="사각형 6407" class="cls-1" width="35" height="35" transform="translate(-19564.346 17612.654)"/>
    </clipPath>
  </defs>
  <g id="마스크_그룹_347" data-name="마스크 그룹 347" class="cls-2" transform="translate(19564.346 -17612.654)">
    <g id="Heart-off" transform="translate(-19558.785 17617.938)">
      <path id="패스_22747" data-name="패스 22747" class="cls-3" d="M20.724,5.834c.154-.154.217-.562,0-.582s-.935,0-1.165,0a6.92,6.92,0,0,0-4.66,2.33,6.92,6.92,0,0,0-4.66-2.33c-3.721,0-6.99,2.794-6.99,6.407a9.919,9.919,0,0,0,2.912,6.407,7.007,7.007,0,0,0,.582.582.43.43,0,0,0,.582,0Z" transform="translate(-3.25 -2.646)"/>
      <path id="패스_22748" data-name="패스 22748" class="cls-3" d="M4.745,24.624h0a1.46,1.46,0,0,0,0,1.747.726.726,0,0,0,1.165,0l4.077-4.077c.33.235.844.363,1.165.582l2.912,2.33a1.074,1.074,0,0,0,1.165,0l2.912-2.33A26.338,26.338,0,0,0,23.384,18.8,10.023,10.023,0,0,0,26.3,12.392a6.628,6.628,0,0,0-1.747-4.66l2.912-2.912a.73.73,0,0,0,0-1.165,1.526,1.526,0,0,0-1.747,0L4.745,24.624C4.733,24.636,4.757,24.613,4.745,24.624Z" transform="translate(-2.997 -3.38)"/>
    </g>
  </g>
</svg>
