<svg id="Heart_Rate" data-name="Heart Rate" xmlns="http://www.w3.org/2000/svg" width="97.423" height="91.76" viewBox="0 0 97.423 91.76">
  <path id="패스_22741" data-name="패스 22741" d="M2.5,33.438C2.5,17.048,14.986,3.5,30.722,3.5a27.3,27.3,0,0,1,20.491,9.4A27.372,27.372,0,0,1,71.7,3.5c15.736,0,28.222,13.548,28.222,29.938a46.48,46.48,0,0,1-1.4,11.082H83.038l-5.683-5.683a3.845,3.845,0,0,0-6.159,1l-5.305,10.61-4.106-4.106a3.846,3.846,0,0,0-5.848.484L47.3,58.913,41.641,34.375a3.846,3.846,0,0,0-7.109-1l-9.279,16.7-4.432-5.91a3.845,3.845,0,0,0-5.8-.412l-3.331,3.331H4.183A56.032,56.032,0,0,1,2.5,33.438Z" transform="translate(-2.5 -3.5)" fill="#ff6060"/>
  <path id="패스_22742" data-name="패스 22742" d="M3.129,23.814C10.076,43.53,27.468,59.024,47.706,66.7a2.562,2.562,0,0,0,1.817,0c13.309-5.045,25.218-14.438,33.8-25.5A71.372,71.372,0,0,0,94.4,21.25H79.911a3.845,3.845,0,0,1-2.72-1.127l-4.8-4.8-5.305,10.61a3.845,3.845,0,0,1-6.159,1l-4.294-4.294-9.407,13.17a3.846,3.846,0,0,1-6.877-1.371L34.8,10.38,26.178,25.895a3.846,3.846,0,0,1-6.438.44l-4.732-6.309-2.662,2.662a3.845,3.845,0,0,1-2.719,1.127Z" transform="translate(0.097 24.897)" fill="#ff6060"/>
</svg>
