<svg xmlns="http://www.w3.org/2000/svg" xmlns:xlink="http://www.w3.org/1999/xlink" width="35" height="35" viewBox="0 0 35 35">
  <defs>
    <style>
      .cls-1 {
        fill: #fff;
        opacity: 0;
      }

      .cls-2 {
        clip-path: url(#clip-path);
      }

      .cls-3 {
        fill: #95a4b4;
      }
    </style>
    <clipPath id="clip-path">
      <rect id="사각형_6408" data-name="사각형 6408" class="cls-1" width="35" height="35" transform="translate(-19431 17613)"/>
    </clipPath>
  </defs>
  <g id="마스크_그룹_348" data-name="마스크 그룹 348" class="cls-2" transform="translate(19431 -17613)">
    <g id="Heartbeat" transform="translate(-19425.66 17620.119)">
      <path id="패스_22749" data-name="패스 22749" class="cls-3" d="M9.369,4.771A7.354,7.354,0,0,0,2.25,11.89c0,2.554,1.381,4.151,2.966,5.932a29.98,29.98,0,0,0,5.339,4.746l2.966,2.373a1.084,1.084,0,0,0,1.186,0l3.559-2.373c.589-.4,1.172-.737,1.78-1.186.159-.118.088-.416,0-.593l-1.78-3.559c-.088-.178-.467-.153-.593,0h0c-.521.631-1.555.593-2.373.593H12.928c-1.514,0-2.966-.859-2.966-2.373a3.14,3.14,0,0,1,2.966-2.966h1.186c.164,0-.1.126,0,0l2.373-2.373A2.745,2.745,0,0,1,18.86,8.924a3.379,3.379,0,0,1,2.373,1.78l.593,2.373c.116.252.947.14,1.186,0,.407-.237.687-.593,1.186-.593h1.78c.207,0-.017.206,0,0s0-.368,0-.593c0-3.7-2.713-7.119-6.525-7.119a8.479,8.479,0,0,0-5.339,2.373A7.009,7.009,0,0,0,9.369,4.771Z" transform="translate(-2.25 -4.771)"/>
      <path id="패스_22750" data-name="패스 22750" class="cls-3" d="M16.786,10.03c-.148-.322-.242-.547-.593-.593s-.961-.273-1.186,0L12.04,13h-1.78a1.319,1.319,0,0,0-1.186,1.186,1.319,1.319,0,0,0,1.186,1.186h2.373c.307,0,.4-.356.593-.593L15.6,12.4l2.373,5.339c.147.322.835.547,1.186.593s.368-.32.593-.593l2.373-2.373h2.966a1.319,1.319,0,0,0,1.186-1.186A1.319,1.319,0,0,0,25.091,13H21.532c-.307,0-.4.356-.593.593l-1.78,1.78Z" transform="translate(0.417 -3.505)"/>
    </g>
  </g>
</svg>
