<svg xmlns="http://www.w3.org/2000/svg" width="74.347" height="69.037" viewBox="0 0 74.347 69.037">
  <path id="패스_22751" data-name="패스 22751" d="M100.728,28.015a17.949,17.949,0,0,1,3.1,18.815c-4.242,10.746-13.786,20.482-22.84,29.717-4.428,4.517-8.739,8.914-12.254,13.251q-1.217-1.181-2.511-2.43C54.659,76.2,39.144,61.209,33.343,46.83a17.918,17.918,0,0,1,.39-14.313,18.137,18.137,0,0,1,4.4-5.88c7.382-6.566,18.938-5.542,25.963,1.4l4.639,4.583L74.1,27.307a18.487,18.487,0,0,1,26.624.707ZM58.312,58.027,74.446,37.251l-3.1,15.685h9.2a1.012,1.012,0,0,1,.8,1.631L65.209,75.343l3.1-15.685h-9.2A1.012,1.012,0,0,1,58.312,58.027Z" transform="translate(-31.539 -21.5)" fill="#e2e6ff" stroke="#455eee" stroke-width="1" fill-rule="evenodd"/>
</svg>
