<svg id="안전장구미착용" xmlns="http://www.w3.org/2000/svg" width="123.3" height="123.301" viewBox="0 0 123.3 123.301">
  <defs>
    <style>
      .cls-1, .cls-2 {
        fill: #ff0b00;
      }

      .cls-2, .cls-3 {
        fill-rule: evenodd;
      }

      .cls-3 {
        fill: #ffc1c1;
      }

      .cls-4 {
        fill: none;
      }
    </style>
  </defs>
  <path id="패스_23060" data-name="패스 23060" class="cls-1" d="M61.651,123.3a61.65,61.65,0,1,1,43.593-18.058A61.242,61.242,0,0,1,61.651,123.3m0-115.3A53.65,53.65,0,1,0,115.3,61.649,53.711,53.711,0,0,0,61.649,8"/>
  <path id="패스_23061" data-name="패스 23061" class="cls-1" d="M53.207,91.512h-29a2.132,2.132,0,0,0-2.231,2.017v.9a2.133,2.133,0,0,0,2.231,2.018h29a2.133,2.133,0,0,0,2.23-2.018v-.9a2.132,2.132,0,0,0-2.23-2.017"/>
  <path id="패스_23062" data-name="패스 23062" class="cls-2" d="M47.051,75.29v6.087a1.233,1.233,0,1,1-2.466,0V71.585a.967.967,0,0,0-.085-.424,2.188,2.188,0,0,0-1.436-.6H33.726a.985.985,0,0,0-.657.333v0a.985.985,0,0,0-.243.695v9.79a1.233,1.233,0,1,1-2.465.07c0-.023,0-.047,0-.07v-6.1a12.249,12.249,0,0,0-6.077,10.618v3.294H53.135v-3.3a12.222,12.222,0,0,0-1.61-6.092,12.476,12.476,0,0,0-4.474-4.509"/>
  <path id="패스_23063" data-name="패스 23063" class="cls-2" d="M57.5,56.333a7.27,7.27,0,0,1,6.6-7.2L63.12,46.11c-.27-.026-.55-.044-.833-.053-.143-.007-.29-.007-.435-.007a11.233,11.233,0,0,0-4.722.958,2.815,2.815,0,0,0-1.17.844,7.22,7.22,0,0,1-14.141-.912L38.68,50.06a8.638,8.638,0,0,0-2.52,6.1V60.7H57.5Z"/>
  <path id="패스_23064" data-name="패스 23064" class="cls-2" d="M66.975,72v2.4a8.813,8.813,0,0,1,5.015,3.555H95.326v-7.4H69.484A7.194,7.194,0,0,1,66.975,72"/>
  <path id="패스_23065" data-name="패스 23065" class="cls-2" d="M50.828,34.01a24.738,24.738,0,0,1,7.674-2.2l-3.41-10.557H49.72a3.7,3.7,0,0,0-3.7,3.7v12.38l.008,0a18.238,18.238,0,0,1,4.8-3.327"/>
  <path id="패스_23066" data-name="패스 23066" class="cls-2" d="M81.385,47.516c0,5.519-2.25,10.1-6.333,12.919-.14.1-.269.182-.392.261H95.325v-4.54a8.635,8.635,0,0,0-2.524-6.1l-4.09-4.064a11.105,11.105,0,0,1-3.246-7.853V24.952a3.727,3.727,0,0,0-1.084-2.617,3.67,3.67,0,0,0-2.614-1.083H76.379L72.328,33.826a19.089,19.089,0,0,1,2.257,1.283,14.572,14.572,0,0,1,6.8,12.407"/>
  <path id="패스_23067" data-name="패스 23067" class="cls-2" d="M57.5,60.7h0v0Z"/>
  <path id="패스_23068" data-name="패스 23068" class="cls-2" d="M57.426,87.815H55.512v1.479a3.7,3.7,0,0,1,2.835,3.59v1.094a3.632,3.632,0,0,1-.227,1.233h6.39V91.7a8.816,8.816,0,0,1-7.084-3.882"/>
  <path id="패스_23069" data-name="패스 23069" class="cls-2" d="M64.511,74.107V70.556H46.8a3.524,3.524,0,0,1,.163,1.029v.958a14.911,14.911,0,0,1,6.181,5.409h4.305a8.821,8.821,0,0,1,7.058-3.845"/>
  <path id="패스_23070" data-name="패스 23070" class="cls-2" d="M72.015,87.818a8.812,8.812,0,0,1-5.039,3.592v3.8h28.35V87.818Z"/>
  <path id="패스_23071" data-name="패스 23071" class="cls-3" d="M47.943,50.658a4.723,4.723,0,0,0,5.7-3.482c.175-.678.792-1.6,2.483-2.416a13.976,13.976,0,0,1,6.327-1.2,11.058,11.058,0,0,1,5.6,1.5,2.756,2.756,0,0,1,1.473,2.461,4.929,4.929,0,0,1-.408,2.225,2.2,2.2,0,0,1-.758.857A8.021,8.021,0,0,1,64.5,51.616a4.723,4.723,0,0,0-4.408,4.712v8.807a4.723,4.723,0,0,0,9.446,0V60.311A14.247,14.247,0,0,0,73.72,58.38c3.251-2.237,5.251-5.89,5.251-10.86a12.165,12.165,0,0,0-5.687-10.326h0a20.373,20.373,0,0,0-10.531-3.078,23.368,23.368,0,0,0-10.748,2.143,13.416,13.416,0,0,0-7.514,8.567c-.012.044-.023.088-.034.132a4.723,4.723,0,0,0,3.482,5.7"/>
  <path id="패스_23072" data-name="패스 23072" class="cls-3" d="M71.109,82.9a6.3,6.3,0,1,0-6.3,6.3,6.3,6.3,0,0,0,6.3-6.3"/>
  <rect id="사각형_6663" data-name="사각형 6663" class="cls-4" width="123.3" height="123.3"/>
</svg>
