<svg xmlns="http://www.w3.org/2000/svg" width="120" height="120" viewBox="0 0 120 120">
  <defs>
    <style>
      .cls-1 {
        fill: #ff6565;
      }
    </style>
  </defs>
  <g id="그룹_20906" data-name="그룹 20906" transform="translate(9808.398 -8586.52)">
    <path id="패스_22780" data-name="패스 22780" class="cls-1" d="M92,21a59.775,59.775,0,0,1,25.293,5.576,51.8,51.8,0,0,0-2.83,6.038A53.262,53.262,0,1,0,143.281,66.3a23.373,23.373,0,0,0,6-3.2A60.01,60.01,0,1,1,92,21Z" transform="translate(-9840.398 8565.52)"/>
    <path id="패스_22781" data-name="패스 22781" class="cls-1" d="M85.822,44.469a13.411,13.411,0,0,1-26.822,0C59,32.735,72.411,21,72.411,21S85.822,32.735,85.822,44.469Z" transform="translate(-9777.572 8565.52)"/>
    <path id="패스_22782" data-name="패스 22782" class="cls-1" d="M51.048,64.469a40.137,40.137,0,0,1,2.623-5.521l-5.736-4.917A6.7,6.7,0,1,1,52.3,48.94l5.256,4.506c4.9-5.662,11.31-9.093,18.326-9.093,10.831,0,20.219,8.175,24.832,20.116,1.3,3.362-1.408,6.705-5.012,6.705H77.332L59.886,56.067,55.5,61.136,67.088,71.174H56.06C52.455,71.174,49.749,67.831,51.048,64.469Z" transform="translate(-9824.21 8612.058)"/>
    <path id="패스_22783" data-name="패스 22783" class="cls-1" d="M43.241,45.833c-2.29-1.467-3.968-3.839-3.569-6.312a1.677,1.677,0,0,1,2.238-1.3c6.1,2.263,12.9.86,18.917-4.856a1.676,1.676,0,0,1,2.743.681c.777,2.309.081,5.426-1.61,7.985a12.72,12.72,0,0,1-8.9,5.584A14.286,14.286,0,0,1,43.241,45.833Z" transform="translate(-9822.67 8593.253)"/>
    <path id="패스_22784" data-name="패스 22784" class="cls-1" d="M73.13,45.833c2.29-1.467,3.968-3.839,3.569-6.312a1.676,1.676,0,0,0-2.238-1.3c-6.1,2.263-12.9.86-18.916-4.856a1.677,1.677,0,0,0-2.743.681c-.777,2.309-.081,5.426,1.61,7.985a12.72,12.72,0,0,0,8.9,5.584A14.287,14.287,0,0,0,73.13,45.833Z" transform="translate(-9792.701 8593.253)"/>
  </g>
</svg>
