<svg xmlns="http://www.w3.org/2000/svg" width="32" height="81" viewBox="0 0 32 81">
  <path id="패스_22760" data-name="패스 22760" d="M47.791,70.5l0-3.557-.01-12.423L47.758,29.7c0-5.917,4.329-10.718,9.679-10.723s9.691,4.789,9.7,10.706l.02,24.814.01,12.424,0,3.556a16.165,16.165,0,0,1,5.822,12.486,15.508,15.508,0,1,1-31,.026A16.167,16.167,0,0,1,47.791,70.5Zm7.7-16.673A28.044,28.044,0,0,0,63.278,55.1l0-4.17-3.875,0a2,2,0,0,1,0-4l3.875,0,0-4-3.875,0a2,2,0,0,1,0-4l3.875,0,0-4-3.875,0a2,2,0,0,1,0-4l3.875,0V29.69c0-3.55-2.607-6.426-5.818-6.424s-5.81,2.883-5.807,6.433l.018,23.283A26.813,26.813,0,0,1,55.493,53.824Z" transform="translate(-41.488 -18.48)" fill="#e2e6ff" stroke="#455eee" stroke-width="1" fill-rule="evenodd"/>
</svg>
