<svg xmlns="http://www.w3.org/2000/svg" width="47" height="47" viewBox="0 0 47 47">
  <defs>
    <style>
      .cls-1 {
        fill: #6adb84;
      }
    </style>
  </defs>
  <path id="Checked-box" class="cls-1" d="M14.04,4.226a118.022,118.022,0,0,1,25.968,0,11.1,11.1,0,0,1,7.82,4.614L25.637,30.994,18.79,24.158a2.078,2.078,0,0,0-2.941,2.936l8.317,8.3a2.081,2.081,0,0,0,2.94,0l22.5-22.463q.093.455.149.923a113.042,113.042,0,0,1,0,26.3,11.042,11.042,0,0,1-9.748,9.632,118.05,118.05,0,0,1-25.968,0,11.042,11.042,0,0,1-9.748-9.632,113.033,113.033,0,0,1,0-26.3A11.042,11.042,0,0,1,14.04,4.226Z" transform="translate(-3.524 -3.51)"/>
</svg>
